<svg xmlns="http://www.w3.org/2000/svg" version="1.1" xmlns:xlink="http://www.w3.org/1999/xlink" xmlns:svgjs="http://svgjs.dev/svgjs" width="2000" height="2250" viewBox="0 0 2000 2250"><g transform="matrix(1,0,0,1,0.0010248907850609612,0)"><svg viewBox="0 0 320 360" data-background-color="#000000" preserveAspectRatio="xMidYMid meet" height="2250" width="2000" xmlns="http://www.w3.org/2000/svg" xmlns:xlink="http://www.w3.org/1999/xlink"><g id="tight-bounds" transform="matrix(1,0,0,1,-0.00005466084189720277,0)"><svg viewBox="0 0 320 360" height="360" width="320"><rect width="320.0002186433675" height="360" fill="url(#1093f2b2-327e-4ddb-a861-5659bb71603e)" mask="url(#4f68da8a-fae2-4a54-925d-4885abca17bf)" data-fill-palette-color="tertiary"></rect><g><svg></svg></g><g><svg viewBox="0 0 320 360" height="360" width="320"><g><path transform="translate(-119.39272,-98.31927) scale(5.58313,5.58313)" d="M36.7 23.5c0-0.2 0.1-0.4 0.3-0.4 0.2 0 0.4 0.1 0.4 0.4 0.1 0 0.3 0 0.4-0.1 0.4 0 0.8-0.1 1.1 0 0.3 0.1 0.5 0.1 0.8 0.2 0.3 0.1 0.5 0 0.7-0.1 0.4-0.1 0.7-0.3 1.1-0.4 0.2-0.1 0.3-0.1 0.5-0.1 0.2-0.1 0.4-0.1 0.7-0.2 0.5-0.1 1-0.2 1.4-0.4 0.4-0.2 0.8-0.2 1.2-0.3 0.2 0 0.3-0.1 0.5-0.2 0.1 0 0.1-0.1 0.2-0.2 0.2-0.1 0.3-0.2 0.5-0.1 0.1 0.1 0.3 0.1 0.4 0h0.1c0.6 0 1.2-0.1 1.9 0 0.1 0 0.2 0 0.2 0 0.3-0.2 0.7-0.2 1.1-0.2 0.1 0 0.3 0 0.4 0h0.1c0.4 0 0.8 0 1.1 0.1 0.3 0 0.5 0.1 0.8 0.2 0.3 0 0.5 0 0.8 0.1 0.2 0 0.4 0 0.6 0 0.1 0 0.2 0 0.2 0 0.4 0.1 0.8 0.1 1.2 0.1 0.3 0.1 0.6 0.2 1 0.2 0.1 0 0.2 0 0.3 0 0.1 0 0.2 0.1 0.3 0.1l0.1 0.1c0.4 0 0.7 0.2 1.1 0.2 0.1 0 0.3 0 0.4 0.1 0.3 0.2 0.7 0.3 1.1 0.3 0.2 0 0.3 0.1 0.4 0.2 0.3 0.1 0.5 0.2 0.8 0.3 0.2 0.1 0.4 0 0.6 0.1 0.3 0.1 0.7 0.2 1 0.5 0.2 0.2 0.4 0.2 0.7 0.4 0.1 0 0.2 0.1 0.3 0.2 0.3 0.2 0.6 0.4 0.9 0.5 0.1 0 0.2 0.1 0.3 0.1 0.3 0.2 0.6 0.5 1 0.7 0.2 0.1 0.3 0.2 0.5 0.3h0.1c0.3 0.3 0.7 0.5 1 0.8 0.3 0.3 0.5 0.5 0.9 0.7 0 0 0 0 0 0.1 0.1 0.2 0.2 0.3 0.4 0.4 0.2 0.1 0.3 0.2 0.4 0.3 0.3 0.2 0.6 0.4 0.8 0.6 0.1 0.1 0.2 0.2 0.4 0.4 0.1 0.1 0.2 0.2 0.3 0.2 0.4 0.1 0.6 0.4 0.9 0.7 0.2 0.2 0.5 0.5 0.7 0.7 0.1 0.1 0.2 0.3 0.3 0.5 0.2 0.6 0.5 1.2 0.8 1.7 0 0 0 0.1 0.1 0.2v0.1c0.2 0.2 0.3 0.5 0.5 0.7 0.1 0.1 0.1 0.2 0.2 0.3 0.2 0.3 0.3 0.7 0.5 1 0.3 0.5 0.5 1 0.7 1.5v0.1c0.1 0.2 0.2 0.4 0.3 0.7 0 0.2 0.2 0.4 0.3 0.7 0.1 0.5 0.4 1 0.5 1.6 0 0.1 0.1 0.2 0.1 0.4 0.1 0.3 0.2 0.6 0.3 0.9 0 0.1 0.1 0.2 0.2 0.3 0.2 0.2 0.2 0.4 0.2 0.6-0.1 0.4 0 0.8 0.1 1.2 0 0.1 0 0.2 0 0.4 0.1 0.4 0.2 0.9 0.2 1.3 0 0.1 0 0.3 0 0.4 0 0.3 0.1 0.6 0.3 0.9 0 0.1 0.1 0.1 0.1 0.1 0.1 0.1 0.2 0.3 0.3 0.4 0.1 0.1 0.1 0.1 0.2 0.2 0.2 0.2 0.3 0.4 0.3 0.7 0 0.1-0.1 0.3-0.1 0.4 0 0.1 0 0.3 0.1 0.4 0.1 0.1 0.1 0.2 0.1 0.3 0 0.1-0.1 0.2-0.2 0.2v0c-0.1 0.3-0.5 0.4-0.6 0.7-0.1 0.4-0.2 0.8-0.3 1.2-0.1 0.3-0.1 0.5-0.1 0.8 0 0.3-0.1 0.5-0.1 0.8-0.1 0.4-0.2 0.8-0.3 1.2 0 0.2-0.1 0.4-0.1 0.6 0.1 0.1 0.2 0.2 0.3 0.2 0.2 0.2 0.4 0.4 0.6 0.6 0.1 0.1 0.1 0.2 0 0.2-0.1 0.1-0.2 0.1-0.3 0.1-0.1-0.1-0.3-0.2-0.4-0.2-0.1-0.1-0.3-0.2-0.5-0.1 0 0.2-0.1 0.4-0.1 0.5-0.1 0.2-0.2 0.5-0.2 0.7-0.1 0.4-0.3 0.7-0.4 1.1-0.2 0.5-0.4 0.9-0.6 1.3-0.1 0.2-0.2 0.4-0.3 0.6v0c0 0.3-0.3 0.6-0.4 0.9-0.2 0.4-0.4 0.8-0.6 1.3-0.1 0.2-0.2 0.4-0.3 0.5-0.2 0.5-0.4 0.9-0.7 1.3-0.2 0.3-0.4 0.5-0.6 0.6-0.2 0.2-0.4 0.4-0.6 0.6-0.1 0.1-0.2 0.2-0.3 0.3-0.1 0.1-0.1 0.1-0.2 0.2-0.2 0.3-0.5 0.5-0.7 0.8-0.2 0.2-0.3 0.4-0.6 0.6-0.2 0.2-0.4 0.5-0.7 0.6-0.1 0.1-0.2 0.3-0.3 0.4-0.1 0.1-0.2 0.3-0.3 0.4 0 0.2 0.1 0.4 0.1 0.5 0 0.3-0.3 0.4-0.5 0.2-0.3-0.2-0.3-0.2-0.6 0-0.3 0.2-0.6 0.5-1 0.6-0.1 0-0.1 0.1-0.2 0.1-0.2 0.1-0.3 0.3-0.5 0.4-0.2 0.2-0.5 0.3-0.7 0.5-0.1 0.1-0.2 0.1-0.3 0.2-0.3 0.2-0.6 0.3-0.9 0.6-0.1 0.1-0.2 0.1-0.3 0.2 0 0.1 0 0.1 0 0.2 0 0.2-0.2 0.4-0.5 0.3-0.3-0.1-0.5 0-0.8 0-0.3 0.1-0.6 0.3-0.9 0.4-0.1 0-0.2 0.1-0.3 0.2-0.3 0.2-0.6 0.3-0.9 0.4-0.2 0-0.4 0.2-0.6 0.2-0.1 0-0.2 0.1-0.3 0.1h-0.1c-0.4 0.3-0.8 0.5-1.2 0.8-0.1 0-0.1 0.1-0.2 0.2-0.1 0.2-0.2 0.3-0.4 0.3-0.5 0-0.7 0.4-0.6 0.8 0 0.1 0.1 0.2 0.1 0.3 0.1 0.2 0 0.4-0.1 0.5-0.1 0.1-0.4 0.1-0.5-0.1-0.2-0.2-0.3-0.4-0.4-0.7-0.1-0.2-0.3-0.4-0.5-0.5-0.2-0.1-0.4-0.1-0.6 0-0.1 0-0.1 0.1-0.2 0.1-0.2 0.2-0.5 0.3-0.8 0.2-0.1 0-0.3 0-0.3 0.1-0.1 0.1-0.1 0.3 0 0.4 0.2 0.2 0.1 0.4 0.1 0.7 0 0.4-0.3 0.6-0.7 0.4-0.1-0.1-0.2-0.1-0.3-0.2-0.1 0-0.1-0.1-0.1-0.2-0.1-0.1-0.1-0.3-0.2-0.5-0.2 0.1-0.4 0.1-0.6 0.2-0.1 0-0.2 0.1-0.3 0.1-0.3 0-0.4 0-0.5-0.3-0.1-0.3-0.3-0.3-0.5-0.4-0.4-0.1-0.9-0.1-1.3-0.3h-0.1c-0.4-0.3-0.8-0.3-1.3-0.3-0.3 0-0.6 0.1-0.9 0.1-0.3 0-0.5 0.1-0.7 0.3-0.1 0.1-0.2 0.2-0.3 0.2-0.1-0.1-0.1-0.2-0.2-0.3v-0.1c0-0.1-0.1-0.2-0.2-0.1-0.2 0.1-0.4-0.1-0.6-0.2-0.1-0.1-0.3-0.3-0.3-0.5-0.1-0.1-0.2-0.2-0.3-0.2-0.2 0-0.5-0.1-0.7-0.1-0.1 0-0.2 0-0.2-0.1-0.1-0.1-0.2-0.1-0.4-0.1-0.1 0-0.1-0.1-0.2-0.1 0.2 0.2 0.3 0.4 0.4 0.6 0 0.1 0.1 0.1 0.1 0.2 0.1 0.2 0 0.3-0.3 0.3-0.2 0-0.2 0-0.3 0.1 0 0.2 0 0.3 0 0.5 0 0.1 0 0.2-0.2 0.3 0 0-0.1 0-0.1 0.1-0.1 0.1-0.1 0.2 0 0.3 0.3 0.2 0.5 0.3 0.8 0.4 0.3 0 0.3 0.2 0.4 0.4 0.1 0.2 0 0.3-0.1 0.5-0.2 0.2-0.4 0.4-0.6 0.6-0.3 0.1-0.5 0.4-0.8 0.4-0.2 0-0.4-0.1-0.5-0.3-0.1-0.5-0.1-0.9 0.1-1.4 0-0.1 0.1-0.2 0-0.3-0.9 0-0.9-0.2-0.9-0.3 0-0.2 0.1-0.3 0.1-0.5 0.1-0.2 0-0.3-0.3-0.4-0.1 0-0.2 0-0.3 0-0.1 0-0.1-0.1-0.3-0.1 0.2-0.1 0.3-0.1 0.5-0.2-0.1-0.4-0.2-0.7-0.5-0.9-0.1-0.1-0.2-0.2-0.2-0.4 0-0.3-0.2-0.5-0.3-0.7-0.2-0.3-0.6-0.4-0.9-0.4-0.3-0.1-0.5-0.1-0.8-0.2-0.3-0.1-0.6-0.4-0.9-0.5-0.1-0.1-0.2-0.2-0.4-0.3-0.4-0.2-0.7-0.5-1-0.8-0.2-0.1-0.3-0.3-0.5-0.4-0.2-0.2-0.3-0.4-0.5-0.5-0.2-0.2-0.4-0.4-0.7-0.6-0.3-0.2-0.5-0.5-0.8-0.8-0.2-0.3-0.5-0.5-0.8-0.7-0.1 0-0.2 0-0.3 0-0.1 0-0.2 0.1-0.3 0.1-0.3 0.1-0.5 0.3-0.8 0.4 0.1-0.1 0.1-0.1 0-0.3-0.1-0.1-0.2-0.2-0.3-0.2-0.2 0-0.4 0-0.6 0-0.4 0-0.8 0.1-1.2 0.1-0.3 0-0.7 0.1-1 0.2 0.1 0.2 0.1 0.3 0.2 0.5-0.2 0.1-0.4 0.1-0.6 0.1-0.1 0-0.3 0.1-0.4 0.2-0.1 0-0.1 0.1-0.2 0-0.2-0.1-0.4 0-0.6 0.1h-0.1c0 0 0-0.1 0.1-0.1 0.1-0.1 0.2-0.2 0.3-0.3 0.1-0.1 0.2-0.1 0.4-0.2-0.1-0.1-0.1-0.2-0.1-0.2-0.1-0.1-0.2-0.1-0.3 0-0.1 0.1-0.2 0.2-0.3 0.3-0.1 0.1-0.2 0.1-0.3 0-0.1-0.1-0.1-0.2 0-0.3 0-0.1 0.1-0.2 0.2-0.3 0.1-0.1 0.1-0.2 0.2-0.3-0.2-0.2-0.3-0.4-0.5-0.5-0.3-0.2-0.6-0.5-0.8-0.8-0.2-0.4-0.5-0.7-0.9-0.9-0.1-0.1-0.2-0.2-0.3-0.3-0.1-0.1-0.1-0.1-0.2-0.2-0.3 0.1-0.5 0.3-0.8 0.4-0.1 0-0.1 0.1-0.2 0.2-0.1 0.2-0.3 0.2-0.5 0.2-0.1 0-0.2-0.1-0.1-0.2 0.1-0.2 0.2-0.4 0.5-0.3 0 0 0.1 0 0.1-0.1 0.2-0.2 0.4-0.5 0.7-0.7-0.1-0.3-0.3-0.5-0.4-0.7-0.1-0.1-0.1-0.2-0.1-0.4 0-0.1 0-0.1-0.1-0.2 0 0-0.1 0-0.2 0.1-0.1 0.1-0.3 0.2-0.5 0 0-0.1 0-0.2 0.1-0.3l0.1-0.1c0.3-0.1 0.3-0.4 0.3-0.7v-0.1c-0.1-0.2-0.1-0.3 0.1-0.5 0.3-0.2 0.6-0.6 0.7-0.9 0.1-0.2 0.3-0.3 0.5-0.5 0.2-0.2 0.4-0.4 0.5-0.7h0.1c0.4 0.1 0.5-0.2 0.7-0.5 0-0.1 0-0.2 0.1-0.2 0.2-0.2 0.2-0.4 0.1-0.7 0-0.1-0.1-0.3-0.1-0.4 0-0.1 0-0.1-0.1-0.2-0.3-0.2-0.3-0.4 0-0.6 0.2-0.1 0.2-0.3 0.3-0.4 0.1-0.2 0.1-0.4 0.1-0.7-0.1-0.3-0.1-0.7-0.2-1-0.1-0.4-0.2-0.9-0.3-1.3 0-0.1 0-0.1 0-0.2 0-0.3 0-0.5-0.1-0.8-0.1-0.1-0.1-0.3-0.1-0.4-0.1-0.3-0.2-0.5-0.5-0.6-0.3-0.2-0.7-0.3-1-0.5-0.1-0.1-0.2 0-0.3 0.1-0.1 0.2-0.3 0.4-0.4 0.6-0.1 0.1-0.2 0.3-0.3 0.5-0.2 0.2-0.6 0.4-0.9 0.1-0.1-0.2-0.2-0.3 0-0.5 0.2-0.3 0.4-0.6 0.7-0.8 0.1-0.1 0.2-0.3 0.3-0.4 0.1-0.2 0.1-0.4 0.1-0.6-0.1-0.4-0.2-0.8-0.2-1.3 0-0.5 0-0.9 0.1-1.4 0.1-0.2 0.1-0.5 0.2-0.7 0-0.1 0.1-0.3 0.2-0.4 0.2-0.2 0.4-0.4 0.5-0.7 0.1-0.3 0.3-0.6 0.3-0.9 0-0.1 0.1-0.2 0.1-0.3 0-0.1 0.1-0.3 0.1-0.4-0.1-0.3 0-0.5 0.1-0.7 0.1-0.2 0.2-0.5 0.3-0.7 0.2-0.4 0.2-0.9 0.6-1.3 0.1-0.2 0.2-0.4 0.3-0.6 0.1-0.4 0.3-0.7 0.5-1 0.1-0.1 0.1-0.1 0.1-0.2 0.1-0.3 0.3-0.6 0.5-0.9 0.2-0.3 0.2-0.6 0.3-0.9 0-0.1 0-0.2 0.1-0.3 0.3-0.3 0.2-0.7 0.1-1.1-0.2-0.5-0.3-1-0.2-1.5 0-0.1 0-0.2 0.1-0.2 0.1-0.2 0.1-0.3 0.2-0.5v-0.1c0.2-0.2 0.4-0.5 0.7-0.6 0.4-0.2 0.8-0.3 1.3-0.4 0.4 0 0.8-0.2 1.1-0.6 0-0.1 0.1-0.1 0.2-0.2l0.1-0.1c0.1-0.2 0.2-0.3 0.3-0.4 0.2-0.2 0.4-0.5 0.6-0.7 0.2-0.2 0.4-0.5 0.7-0.8l0.1-0.1c0.2-0.2 0.4-0.4 0.6-0.5 0.2-0.2 0.4-0.4 0.6-0.6 0.2-0.2 0.3-0.4 0.5-0.6 0.2-0.1 0.4-0.3 0.6-0.5 0.2-0.2 0.4-0.4 0.5-0.5 0.2-0.2 0.5-0.4 0.7-0.5 0.2-0.1 0.4-0.2 0.5-0.5 0.1-0.3 0.2-0.5 0.3-0.8 0-0.2 0.1-0.4 0.2-0.6 0.1 0 0.2 0 0.4-0.1-0.1-0.1-0.2-0.1-0.2-0.2 0-0.1 0.1-0.2 0.1-0.2 0-0.1 0.1-0.2 0.1-0.3 0 0 0.1 0 0.1-0.1 0 0 0.1 0 0.1-0.1-0.2 0.1-0.3 0-0.4-0.1 0.1 0.1 0.2 0.1 0.4 0.2 0 0 0.1 0 0.1-0.1 0-0.1 0-0.2 0-0.2 0 0-0.1 0-0.2 0-0.1 0-0.2 0.1-0.3 0.1zM54 70.5c0-0.1-0.1-0.1-0.1-0.2-0.1-0.2 0-0.3 0.1-0.4 0.1-0.1 0.2-0.1 0.4-0.1 0.2 0.1 0.3 0.2 0.3 0.4 0 0.1 0 0.3 0 0.4 0.1 0.4 0.1 0.4 0.5 0.4 0.2 0 0.4 0 0.6 0 0.4-0.1 0.8-0.3 1.2-0.4 0.4-0.1 0.8-0.2 1.2-0.3 0.1 0 0.2 0 0.4 0 0.4 0.1 0.7 0 1-0.2 0.1-0.1 0.3-0.1 0.4-0.2 0.2-0.1 0.4-0.1 0.6-0.2 0.5-0.3 1-0.5 1.4-0.8 0.3-0.2 0.6-0.4 0.9-0.6 0.3-0.2 0.6-0.4 0.9-0.6 0.2-0.1 0.5-0.3 0.7-0.5 0.4-0.3 0.7-0.6 1.1-0.8 0.2-0.1 0.3-0.2 0.4-0.3 0.2-0.1 0.3-0.3 0.5-0.4 0.1-0.1 0.2-0.2 0.4-0.3 0.1-0.1 0.1-0.1 0.1-0.2 0.3-0.2 0.6-0.6 0.8-0.9 0.2-0.2 0.4-0.4 0.6-0.7 0.3-0.3 0.5-0.7 0.8-1.1 0.2-0.2 0.4-0.5 0.5-0.7 0.2-0.4 0.4-0.8 0.7-1.1v-0.1c0.2-0.4 0.4-0.8 0.6-1.2 0.3-0.5 0.5-1.1 0.8-1.6 0.1-0.2 0.2-0.4 0.2-0.6 0.2-0.4 0.3-0.8 0.4-1.2 0-0.1 0-0.1 0.1-0.2 0.3-0.6 0.5-1.2 0.6-1.9 0.1-0.4 0.2-0.8 0.3-1.2 0.2-0.6 0.2-1.1 0.3-1.7 0.1-0.4 0.1-0.9 0.1-1.3 0.1-0.6 0.1-1.3 0-1.9 0-0.5-0.1-1.1-0.1-1.6 0-0.5-0.1-0.9-0.2-1.4-0.1-0.5-0.2-0.9-0.3-1.4-0.2-0.4-0.3-0.8-0.4-1.3-0.1-0.4-0.3-0.7-0.3-1.1 0-0.3-0.1-0.6-0.4-0.7-0.3-0.1-0.5-0.2-0.8-0.4-0.6-0.4-0.9-0.9-0.8-1.5 0-0.3 0.1-0.7 0.2-1 0.1-0.3 0.2-0.6 0-0.8-0.1-0.3-0.3-0.5-0.4-0.7-0.2-0.3-0.3-0.5-0.5-0.7-0.2-0.4-0.4-0.8-0.7-1.1-0.4-0.5-0.7-1-1.2-1.4l-0.1-0.1c-0.3-0.4-0.6-0.8-1-1.1-0.2-0.2-0.4-0.4-0.6-0.5-0.1-0.1-0.2-0.2-0.4-0.3-0.3-0.2-0.6-0.3-0.8-0.5-0.3-0.3-0.7-0.5-1-0.7 0 0-0.1 0-0.1-0.1-0.4-0.2-0.7-0.3-1.1-0.5-0.4-0.2-0.8-0.3-1.2-0.3-0.1 0-0.1 0-0.2 0-0.1-0.1-0.3-0.1-0.4-0.1-0.1 0-0.1 0-0.2 0-0.2-0.1-0.5 0-0.7 0-0.4 0.1-0.8 0.1-1.2-0.1-0.5-0.2-0.9-0.4-1.3-0.6-0.3-0.2-0.5-0.4-0.8-0.6-0.6-0.5-1.2-1.1-1.9-1.6 0.1-0.5-0.1-0.6-0.5-0.6-0.2 0-0.4 0.1-0.6 0.2-0.1 0.1-0.1 0.1-0.2 0.2-0.3 0.2-0.5 0.5-0.8 0.7-0.5 0.3-0.7 0.2-1.1 0-0.1-0.1-0.2-0.2-0.3-0.3-0.2-0.2-0.4-0.5-0.5-0.7-0.2-0.4-0.6-0.4-1-0.4-0.2 0-0.5 0.1-0.7 0.1-0.4 0-0.8 0.2-1 0.5-0.2 0.3-0.4 0.6-0.7 0.9-0.1 0.1-0.3 0.2-0.4 0.4-0.2 0.2-0.4 0.2-0.6 0-0.1-0.1-0.2-0.1-0.3-0.2-0.1 0.1-0.2 0.2-0.2 0.3-0.1 0.2-0.2 0.4-0.3 0.7-0.1 0.3-0.3 0.6-0.5 0.8-0.1 0.1-0.1 0.1-0.2 0.2-0.1 0.2-0.4 0.3-0.6 0.3-0.2 0.2-0.4 0.5-0.5 0.7-0.1 0.2-0.2 0.4-0.3 0.7-0.1 0.1-0.1 0.3-0.2 0.4-0.1 0.2-0.1 0.3-0.1 0.5 0.1 0.3-0.1 0.4-0.4 0.5-0.2 0-0.2 0-0.3 0.2 0 0.3 0.1 0.5 0.2 0.8 0.1 0.1 0.2 0.3 0.2 0.4 0 0.2 0.1 0.3 0.3 0.4 0.1 0.1 0.2 0.2 0.3 0.2 0.1 0 0.1 0.1 0.2 0.1 0.1 0.1 0.2 0 0.2-0.1 0.1-0.3 0.2-0.6 0.2-0.9 0.1-0.4 0.1-0.7 0.2-1.1 0.1-0.2 0.2-0.3 0.3-0.4 0 0 0.1 0 0.2 0v0.1c-0.1 0.5-0.3 1.1-0.4 1.6-0.1 0.2-0.1 0.4-0.2 0.6 0 0.1-0.1 0.2-0.2 0.2-0.2 0.1-0.4 0.2-0.6 0.2-0.1 0-0.2 0-0.3 0-0.2-0.1-0.4-0.3-0.6-0.4-0.1-0.1-0.2-0.2-0.3-0.3-0.1-0.2-0.2-0.4-0.3-0.6-0.1-0.2-0.2-0.3-0.4-0.4-0.1-0.1-0.2-0.1-0.3-0.2-0.2-0.2-0.4-0.3-0.7-0.3-0.1 0-0.3 0-0.4 0-0.1 0-0.3 0.1-0.4 0.2-0.2 0.1-0.3 0.1-0.5 0-0.5-0.2-1-0.1-1.5 0.1-0.2 0.1-0.4 0.2-0.6 0.2-0.5 0-0.9 0-1.4 0-0.5 0-0.9-0.1-1.4-0.2-0.2 0-0.4 0-0.6 0-0.4 0.1-0.5 0.4-0.4 0.8 0.1 0.4 0.2 0.9 0.2 1.3 0 0.3 0 0.6 0 0.9 0 0.2 0 0.3 0 0.5 0 0.3-0.1 0.6-0.1 0.9-0.1 0.6-0.4 1.1-0.8 1.5-0.3 0.3-0.7 0.6-1.1 0.7-0.2 0.1-0.4 0.2-0.7 0.3-0.5 0.2-0.9 0.6-1.2 1.1-0.1 0.2-0.2 0.4-0.3 0.6-0.2 0.3-0.3 0.5-0.5 0.8-0.1 0.2-0.3 0.4-0.4 0.6-0.1 0.2-0.3 0.3-0.3 0.5-0.2 0.4-0.3 0.8-0.5 1.2-0.1 0.2-0.1 0.5-0.2 0.7-0.2 0.4-0.2 0.8-0.2 1.3 0 0.1 0 0.2 0 0.4 0 0.5-0.1 1.1-0.1 1.6 0 0.5 0 1 0.1 1.5 0 0.2 0 0.5 0 0.7 0 0.4 0.1 0.9 0.1 1.3 0 0.4 0 0.9 0.2 1.3v0.1c0.1 0.4 0.1 0.8 0.2 1.2 0 0.1 0 0.2 0.1 0.3 0.2 0.6 0.3 1.1 0.5 1.7 0.1 0.4 0.3 0.8 0.4 1.2 0.1 0.4 0.5 0.8 0.6 1.3v0c0.3 0.6 0.6 1.2 1 1.8 0.1 0.2 0.3 0.4 0.4 0.6 0.2 0.3 0.3 0.6 0.5 0.8 0.1 0.2 0.3 0.4 0.4 0.5 0.1 0.2 0.2 0.4 0.4 0.6 0.2 0.2 0.4 0.5 0.6 0.7 0.3 0.5 0.7 0.9 1.1 1.2 0.2 0.2 0.4 0.3 0.6 0.5 0.1 0.1 0.2 0.1 0.2 0.2 0.1 0.1 0.2 0.2 0.4 0.3 0.8 0.4 1.4 1 2.1 1.6 0.3 0.3 0.6 0.6 1 0.8 0.4 0.3 0.7 0.6 1.2 0.7 0 0 0.1 0 0.1 0.1 0.2 0.2 0.5 0.3 0.7 0.4 0.4 0.2 0.9 0.4 1.3 0.6 0.1 0.1 0.3 0.1 0.4 0.2 0.3 0.1 0.6 0.2 0.9 0.3 0.3 0.1 0.5 0.2 0.8 0.2h0.1c0.2 0.1 0.3 0.1 0.5 0 0.1 0 0.2 0 0.2 0.1 0 0.1 0.1 0.1 0.2 0.1 0.1 0 0.2 0 0.4 0 0.1-0.1 0.1-0.2 0.2-0.4 0.1 0.1 0.2 0.1 0.2 0.1 0.1 0.2 0.3 0.2 0.5 0.2h0.1c0.2 0 0.3 0 0.4-0.1 0-0.1 0.2-0.1 0.3-0.1 0.3 0.1 0.6 0.1 0.9 0.2 0.2 0.1 0.5 0.1 0.6-0.1 0.1-0.1 0.2-0.2 0.4-0.1 0.2 0.1 0.3 0.1 0.5 0 0.1 0 0.2 0 0.2 0 0.3 0.1 0.5 0.1 0.8 0.2 0.4 0.1 0.4 0.1 0.7-0.2 0.1-0.1 0.3-0.1 0.4 0 0.1 0.2 0.1 0.3 0.1 0.5 0.1 0 0.1 0 0.2-0.1 0-0.2 0.1-0.2 0.3-0.3 0.1 0.1 0.1 0.1 0.2 0.1 0.2 0.2 0.3 0.2 0.4-0.1 0-0.1 0-0.2 0.1-0.2 0.1 0 0.2 0.1 0.2 0.1 0.1 0.2 0.3 0.3 0.4 0.5 0.2 0.2 0.5 0.2 0.6 0 0.1-0.1 0.2-0.1 0.3-0.1 0-0.1 0-0.2 0-0.3 0.3 0.2 0.2 0.2 0.1 0.2zM37.4 23.8c0.3 0.1 0.5 0.1 0.6-0.1-0.2 0.1-0.4-0.1-0.6 0.1z" fill="url(#1093f2b2-327e-4ddb-a861-5659bb71603e)" fillRule="nonzero" stroke="none" strokeWidth="1" strokeLinecap="butt" strokeLinejoin="miter" stroke-miterlimit="10" stroke-dasharray="" stroke-dashoffset="0" font-family="none" font-weight="none" font-size="none" text-anchor="none" style="mix-blend-mode: normal" data-fill-palette-color="tertiary"></path></g><g transform="matrix(1,0,0,1,64,119.7323389365591)"><svg viewBox="0 0 192 120.5353221268818" height="120.5353221268818" width="192"><g><svg viewBox="0 0 192 120.5353221268818" height="120.5353221268818" width="192"><g transform="matrix(1,0,0,1,0,60.484860990369704)"><svg viewBox="0 0 192 60.050461136512084" height="60.050461136512084" width="192"><g id="textblocktransform"><svg viewBox="0 0 192 60.050461136512084" height="60.050461136512084" width="192" id="textblock"><g><svg viewBox="0 0 192 60.050461136512084" height="60.050461136512084" width="192"><path d="M191.55 12.88C190.648 6.646 188.075 4.914 188.075 4.914 180.177-1.507 170.321-0.123 161.466 0.8 145.832 0.837 130.262 2.208 114.664 2.944 81.926 3.056 48.907 1.211 16.331 5.761 13.271 7.158-3.175 6.036 0.544 13.678 1.519 16.856 5.075 20.384 4.967 23.302 5.455 23.813 6.132 22.641 6.42 23.376 7.431 25.359 9.083 24.424 10.437 25.595 8.551 28.725 9.905 31.33 11.195 34.06 8.921 34.771 6.005 34.434 4.696 36.79 4.561 38.498 3.83 38.174 3.027 38.099 2.44 38.049 1.257 38.236 1.456 38.772 2.133 40.605-0.774 41.665 1.05 43.46-0.205 45.405 1.916 47.088 1.627 49.194 1.591 49.618 1.79 49.98 2.106 50.08 3.505 50.616 1.465 51.663 1.682 52.797 16.033 60.551 31.604 55.191 46.308 58.756 50.126 56.263 47.256 59.641 48.781 59.118 49.972 58.507 50.839 61.038 52.184 59.604 52.392 59.192 52.076 58.22 52.816 58.407 53.204 58.507 53.547 58.482 53.601 57.908 53.682 57.048 52.969 57.584 52.78 57.136 54.829 54.867 54.323 60.265 56.246 60.04 56.156 59.379 55.596 58.432 56.742 58.557 57.88 57.609 57.916 56.824 58.927 58.956 58.963 59.417 59.143 59.741 59.432 59.965 62.591 57.647 65.732 60.788 69.045 59.741 71.076 58.594 73.026 60.364 75.084 59.928 75.806 59.579 76.537 58.956 77.232 60.003 85.744 60.227 94.815 59.292 102.885 60.04 124.449 58.644 147.493 60.614 170.23 58.769 175.592 58.058 181.161 57.048 186.387 56.238 186.387 56.238 190.621 54.019 190.621 44.046S191.523 35.319 191.659 27.378C191.794 19.437 192.426 19.113 191.523 12.88Z" opacity="1" fill="url(#1093f2b2-327e-4ddb-a861-5659bb71603e)" data-fill-palette-color="tertiary"></path><g transform="matrix(1,0,0,1,27.072000000000003,19.1)"><svg width="137.856" viewBox="1.5 -35.95 229.63 36.400000000000006" height="21.850461136512084" data-palette-color="#000000"><path d="M19.7 0.25L19.7 0.25Q17.95 0.25 16.65-0.9 15.35-2.05 15.35-4.65L15.35-4.65Q15.35-4.9 15.35-5.15 15.35-5.4 15.4-5.65L15.4-5.65Q13.9-2.65 12.03-1.23 10.15 0.2 8.25 0.2L8.25 0.2Q6.5 0.2 4.95-1.03 3.4-2.25 2.45-4.65 1.5-7.05 1.5-10.45L1.5-10.45Q1.5-13.95 2.48-16.7 3.45-19.45 5.05-21.35 6.65-23.25 8.55-24.23 10.45-25.2 12.25-25.2L12.25-25.2Q14.25-25.2 15.85-23.98 17.45-22.75 18.05-20.1L18.05-20.1Q18.2-20.95 18.28-21.65 18.35-22.35 18.35-22.6L18.35-22.6Q18.4-23.95 19.73-24.6 21.05-25.25 22.65-25.25L22.65-25.25Q24.05-25.25 25.3-24.7 26.55-24.15 27-22.85L27-22.85 27.1-22.55Q26.5-21.2 25.9-19.3 25.3-17.4 24.8-15.33 24.3-13.25 24-11.28 23.7-9.3 23.7-7.8L23.7-7.8Q23.7-6.15 24.05-5.53 24.4-4.9 24.9-4.9L24.9-4.9Q25.75-4.9 26.45-6.1L26.45-6.1 26.85-5.9Q26.85-4.2 25.75-2.8 24.65-1.4 23-0.58 21.35 0.25 19.7 0.25ZM11.55-6.1L11.55-6.1Q12.85-6.1 14.43-8.43 16-10.75 17.15-15.1L17.15-15.1Q17.25-15.55 17.35-15.98 17.45-16.4 17.5-16.8L17.5-16.8Q16.7-18.65 15.83-19.43 14.95-20.2 14.1-20.2L14.1-20.2Q12.85-20.2 11.78-18.88 10.7-17.55 10.03-15.55 9.35-13.55 9.35-11.55L9.35-11.55Q9.35-8.8 9.98-7.45 10.6-6.1 11.55-6.1ZM35.55 0.15L35.55 0.15Q33.7 0.15 32.2-1.33 30.7-2.8 30.7-5.45L30.7-5.45Q30.7-6.75 31.05-8.4 31.4-10.05 31.82-11.75 32.25-13.45 32.6-14.95 32.95-16.45 32.95-17.4L32.95-17.4Q32.95-18.4 32.55-18.98 32.15-19.55 31.5-19.55L31.5-19.55Q30.65-19.55 29.65-18.55L29.65-18.55 29.35-18.75Q29.3-19.55 29.7-20.65 30.1-21.75 30.92-22.78 31.75-23.8 33.05-24.5 34.35-25.2 36.15-25.2L36.15-25.2Q38.8-25.2 40.07-23.68 41.35-22.15 41.35-19.95L41.35-19.95Q41.35-19.15 41.2-18.4L41.2-18.4Q42.25-19.95 43.8-21.53 45.35-23.1 47.22-24.15 49.1-25.2 51.1-25.2L51.1-25.2Q53.45-25.2 54.3-23.7 55.15-22.2 55.15-19.95L55.15-19.95Q55.15-17.85 54.7-15.45 54.25-13.05 53.8-10.83 53.35-8.6 53.35-7.1L53.35-7.1Q53.35-5.1 54.5-5.1L54.5-5.1Q55.1-5.1 55.55-5.48 56-5.85 56.15-6.2L56.15-6.2 56.5-6.05Q56.5-4.2 55.47-2.8 54.45-1.4 52.9-0.63 51.35 0.15 49.75 0.15L49.75 0.15Q47.8 0.15 46.3-1.2 44.8-2.55 44.8-5.6L44.8-5.6Q44.8-7.4 45.27-9.5 45.75-11.6 46.2-13.55 46.65-15.5 46.65-16.75L46.65-16.75Q46.65-17.5 46.37-17.93 46.1-18.35 45.4-18.35L45.4-18.35Q44.25-18.35 42.87-17.3 41.5-16.25 40.52-14.5 39.55-12.75 39.55-10.65L39.55-10.65Q39.55-9.3 39.87-8.05 40.2-6.8 40.2-5.35L40.2-5.35Q40.2-2.65 38.8-1.25 37.4 0.15 35.55 0.15ZM60.45-10.65L60.45-10.65Q60.15-11.3 60.02-11.93 59.9-12.55 59.9-13.1L59.9-13.1Q59.9-15.05 61.25-16.32 62.6-17.6 64.9-17.6L64.9-17.6Q67.1-17.6 69.27-17.43 71.45-17.25 73.3-17.25L73.3-17.25Q74.7-17.25 75.82-17.43 76.95-17.6 77.65-18.1L77.65-18.1Q78.55-16.45 78.55-15L78.55-15Q78.55-13.3 77.3-12.2 76.05-11.1 73.4-11.1L73.4-11.1Q70.65-11.1 68.55-11.18 66.45-11.25 64.8-11.25L64.8-11.25Q63.45-11.25 62.37-11.15 61.3-11.05 60.45-10.65ZM89.24 0.2L89.24 0.2Q86.34 0.2 84.64-1.33 82.94-2.85 82.94-6.05L82.94-6.05Q82.94-7.9 83.42-10 83.89-12.1 84.34-13.75L84.34-13.75Q84.79-15.35 85.07-16.55 85.34-17.75 85.34-18.4L85.34-18.4Q85.34-19.2 84.99-19.55 84.64-19.9 84.14-19.9L84.14-19.9Q82.94-19.9 82.14-18.75L82.14-18.75 81.94-18.95Q81.99-20.65 83.04-22.08 84.09-23.5 85.74-24.35 87.39-25.2 89.09-25.2L89.09-25.2Q90.99-25.2 92.34-24.08 93.69-22.95 93.59-20.55L93.59-20.55Q93.54-19.5 93.22-17.9 92.89-16.3 92.34-14.1L92.34-14.1Q91.99-12.7 91.62-10.93 91.24-9.15 91.24-7.7L91.24-7.7Q91.24-6.6 91.59-5.95 91.94-5.3 92.74-5.3L92.74-5.3Q93.79-5.3 95.07-6.48 96.34-7.65 97.29-10.33 98.24-13 98.39-17.45L98.39-17.45Q98.54-20.85 97.94-22.4L97.94-22.4 97.94-22.65Q98.39-23.35 99.32-24 100.24-24.65 101.39-25.08 102.54-25.5 103.54-25.5L103.54-25.5Q105.14-25.5 106.27-23.95 107.39-22.4 107.24-18.55L107.24-18.55Q107.14-14.85 105.92-11.85 104.69-8.85 102.74-6.6 100.79-4.35 98.47-2.85 96.14-1.35 93.74-0.58 91.34 0.2 89.24 0.2ZM118.94-26.75L118.94-26.75Q116.94-26.75 115.67-27.98 114.39-29.2 114.39-31.05L114.39-31.05Q114.39-33.05 115.89-34.5 117.39-35.95 119.54-35.95L119.54-35.95Q121.54-35.95 122.82-34.7 124.09-33.45 124.09-31.6L124.09-31.6Q124.09-29.6 122.59-28.18 121.09-26.75 118.94-26.75ZM115.44 0.2L115.44 0.2Q113.49 0.2 111.94-1.18 110.39-2.55 110.39-5.6L110.39-5.6Q110.39-7.35 110.87-8.88 111.34-10.4 111.97-11.85 112.59-13.3 113.07-14.68 113.54-16.05 113.54-17.4L113.54-17.4Q113.54-18.6 113.14-19.13 112.74-19.65 112.19-19.65L112.19-19.65Q111.34-19.65 110.54-18.55L110.54-18.55 110.19-18.75Q110.39-20.75 111.47-22.18 112.54-23.6 114.12-24.4 115.69-25.2 117.24-25.2L117.24-25.2Q119.14-25.2 120.54-23.98 121.94-22.75 121.94-20L121.94-20Q121.94-18.35 121.47-16.53 120.99-14.7 120.37-12.9 119.74-11.1 119.27-9.55 118.79-8 118.79-6.9L118.79-6.9Q118.79-5.95 119.17-5.55 119.54-5.15 119.99-5.15L119.99-5.15Q120.44-5.15 120.87-5.43 121.29-5.7 121.49-6.05L121.49-6.05 121.84-5.95Q121.84-4.1 120.87-2.73 119.89-1.35 118.44-0.58 116.99 0.2 115.44 0.2ZM132.94 0.2L132.94 0.2Q131.14 0.2 129.56-1.05 127.99-2.3 127.01-4.7 126.04-7.1 126.04-10.5L126.04-10.5Q126.04-14 127.04-16.75 128.04-19.5 129.66-21.43 131.29-23.35 133.21-24.35 135.14-25.35 136.99-25.35L136.99-25.35Q139.04-25.35 140.64-24.08 142.24-22.8 142.84-20.1L142.84-20.1Q143.29-22.6 143.61-24.88 143.94-27.15 143.94-28.9L143.94-28.9Q143.94-31.2 143.34-32.25L143.34-32.25 143.34-32.55Q144.49-33.85 145.86-34.48 147.24-35.1 148.49-35.1L148.49-35.1Q150.14-35.1 151.29-34.08 152.44-33.05 152.44-31.15L152.44-31.15Q152.44-30.1 152.09-28.05 151.74-26 151.24-23.38 150.74-20.75 150.21-17.98 149.69-15.2 149.34-12.68 148.99-10.15 148.99-8.3L148.99-8.3Q148.99-6.75 149.31-5.83 149.64-4.9 150.39-4.9L150.39-4.9Q150.94-4.9 151.51-5.28 152.09-5.65 152.29-6.15L152.29-6.15 152.64-5.9Q152.64-4.25 151.59-2.88 150.54-1.5 148.94-0.65 147.34 0.2 145.64 0.2L145.64 0.2Q143.79 0.2 142.71-0.83 141.64-1.85 141.19-3.45 140.74-5.05 140.69-6.75L140.69-6.75Q139.14-3.15 137.06-1.48 134.99 0.2 132.94 0.2ZM136.29-6.15L136.29-6.15Q137.59-6.15 139.19-8.5 140.79-10.85 141.99-15.35L141.99-15.35 142.29-16.9Q141.49-18.75 140.56-19.53 139.64-20.3 138.79-20.3L138.79-20.3Q137.54-20.3 136.44-18.93 135.34-17.55 134.66-15.43 133.99-13.3 133.99-10.95L133.99-10.95Q133.99-8.7 134.64-7.43 135.29-6.15 136.29-6.15ZM165.64 0.35L165.64 0.35Q161.99 0.35 159.59-1.13 157.19-2.6 155.99-5.03 154.79-7.45 154.79-10.25L154.79-10.25Q154.79-12.9 155.81-15.58 156.84-18.25 158.81-20.45 160.79-22.65 163.61-24 166.44-25.35 169.99-25.35L169.99-25.35Q174.39-25.35 176.41-23.38 178.44-21.4 178.44-18.6L178.44-18.6Q178.44-16.2 177.16-14.18 175.89-12.15 173.79-10.93 171.69-9.7 169.19-9.7L169.19-9.7Q167.89-9.7 166.54-10.1 165.19-10.5 163.89-11.35L163.89-11.35Q164.14-8.25 165.69-6.85 167.24-5.45 169.39-5.45L169.39-5.45Q170.89-5.45 172.39-6.03 173.89-6.6 175.16-7.53 176.44-8.45 177.14-9.5L177.14-9.5 177.49-9.25Q177.49-6.65 176.41-4.83 175.34-3 173.59-1.85 171.84-0.7 169.76-0.18 167.69 0.35 165.64 0.35ZM166.79-13.15L166.79-13.15Q168.39-13.15 169.39-14.08 170.39-15 170.89-16.25 171.39-17.5 171.39-18.45L171.39-18.45Q171.39-19.6 170.74-20.38 170.09-21.15 168.94-21.15L168.94-21.15Q168.04-21.15 166.96-20.5 165.89-19.85 165.04-18.28 164.19-16.7 163.94-13.9L163.94-13.9Q165.54-13.15 166.79-13.15ZM191.83 0.35L191.83 0.35Q188.08 0.35 185.63-1.15 183.18-2.65 182.01-5.13 180.83-7.6 180.83-10.4L180.83-10.4Q180.83-13.05 181.81-15.7 182.78-18.35 184.66-20.53 186.53-22.7 189.23-24.03 191.93-25.35 195.43-25.35L195.43-25.35Q199.18-25.35 201.61-23.83 204.03-22.3 205.21-19.8 206.38-17.3 206.38-14.45L206.38-14.45Q206.38-11.85 205.43-9.22 204.48-6.6 202.61-4.42 200.73-2.25 198.03-0.95 195.33 0.35 191.83 0.35ZM193.18-3.9L193.18-3.9Q194.53-3.9 195.43-5.3 196.33-6.7 196.78-8.88 197.23-11.05 197.23-13.3L197.23-13.3Q197.23-15.3 196.86-17.07 196.48-18.85 195.73-19.98 194.98-21.1 193.78-21.1L193.78-21.1Q192.48-21.1 191.56-19.7 190.63-18.3 190.18-16.15 189.73-14 189.73-11.7L189.73-11.7Q189.73-9.7 190.11-7.93 190.48-6.15 191.23-5.03 191.98-3.9 193.18-3.9ZM217.78 0.45L217.78 0.45Q214.68 0.45 212.63-0.4 210.58-1.25 209.58-2.58 208.58-3.9 208.58-5.25L208.58-5.25Q208.58-7.15 210.28-8.63 211.98-10.1 214.88-10.1L214.88-10.1Q214.88-7.55 215.53-6.03 216.18-4.5 217.21-3.85 218.23-3.2 219.18-3.2L219.18-3.2Q220.33-3.2 221.11-3.88 221.88-4.55 221.88-5.55L221.88-5.55Q221.88-6.95 220.43-8 218.98-9.05 216.68-10.35L216.68-10.35Q215.53-11.05 214.18-11.98 212.83-12.9 211.88-14.23 210.93-15.55 210.93-17.4L210.93-17.4Q210.93-19.35 212.06-20.85 213.18-22.35 215.03-23.38 216.88-24.4 219.03-24.93 221.18-25.45 223.23-25.45L223.23-25.45Q227.08-25.45 229.03-23.9 230.98-22.35 230.98-20.6L230.98-20.6Q230.98-19.1 229.48-17.9 227.98-16.7 224.88-16.7L224.88-16.7Q224.93-19.25 223.83-20.43 222.73-21.6 221.48-21.6L221.48-21.6Q220.58-21.6 219.98-21.05 219.38-20.5 219.38-19.45L219.38-19.45Q219.38-18.25 220.16-17.38 220.93-16.5 222.11-15.83 223.28-15.15 224.53-14.55L224.53-14.55Q226.23-13.75 227.73-12.85 229.23-11.95 230.18-10.8 231.13-9.65 231.13-8L231.13-8Q231.13-5.75 229.31-3.83 227.48-1.9 224.43-0.73 221.38 0.45 217.78 0.45Z" opacity="1" transform="matrix(1,0,0,1,0,0)" fill="#000000" class="wordmark-text-0" data-fill-palette-color="quaternary" id="text-0"></path></svg></g></svg></g></svg></g></svg></g><g transform="matrix(1,0,0,1,68.33675423644677,0)"><svg viewBox="0 0 55.32649152710648 55.32649152710648" height="55.32649152710648" width="55.32649152710648"><g><svg xmlns="http://www.w3.org/2000/svg" xmlns:xlink="http://www.w3.org/1999/xlink" version="1.1" x="0" y="0" viewBox="0 0 512 512" enable-background="new 0 0 512 512" xml:space="preserve" height="55.32649152710648" width="55.32649152710648" class="icon-icon-0" data-fill-palette-color="accent" id="icon-0"></svg></g></svg></g><g></g></svg></g></svg></g></svg></g><defs></defs><mask id="b06c5660-e1a8-48d7-99bd-50d68b20cc3b"><g id="SvgjsG2025"><svg viewBox="0 0 320 360" height="360" width="320"><g><svg></svg></g><g><svg viewBox="0 0 320 360" height="360" width="320"><g><path transform="translate(-119.39272,-98.31927) scale(5.58313,5.58313)" d="M36.7 23.5c0-0.2 0.1-0.4 0.3-0.4 0.2 0 0.4 0.1 0.4 0.4 0.1 0 0.3 0 0.4-0.1 0.4 0 0.8-0.1 1.1 0 0.3 0.1 0.5 0.1 0.8 0.2 0.3 0.1 0.5 0 0.7-0.1 0.4-0.1 0.7-0.3 1.1-0.4 0.2-0.1 0.3-0.1 0.5-0.1 0.2-0.1 0.4-0.1 0.7-0.2 0.5-0.1 1-0.2 1.4-0.4 0.4-0.2 0.8-0.2 1.2-0.3 0.2 0 0.3-0.1 0.5-0.2 0.1 0 0.1-0.1 0.2-0.2 0.2-0.1 0.3-0.2 0.5-0.1 0.1 0.1 0.3 0.1 0.4 0h0.1c0.6 0 1.2-0.1 1.9 0 0.1 0 0.2 0 0.2 0 0.3-0.2 0.7-0.2 1.1-0.2 0.1 0 0.3 0 0.4 0h0.1c0.4 0 0.8 0 1.1 0.1 0.3 0 0.5 0.1 0.8 0.2 0.3 0 0.5 0 0.8 0.1 0.2 0 0.4 0 0.6 0 0.1 0 0.2 0 0.2 0 0.4 0.1 0.8 0.1 1.2 0.1 0.3 0.1 0.6 0.2 1 0.2 0.1 0 0.2 0 0.3 0 0.1 0 0.2 0.1 0.3 0.1l0.1 0.1c0.4 0 0.7 0.2 1.1 0.2 0.1 0 0.3 0 0.4 0.1 0.3 0.2 0.7 0.3 1.1 0.3 0.2 0 0.3 0.1 0.4 0.2 0.3 0.1 0.5 0.2 0.8 0.3 0.2 0.1 0.4 0 0.6 0.1 0.3 0.1 0.7 0.2 1 0.5 0.2 0.2 0.4 0.2 0.7 0.4 0.1 0 0.2 0.1 0.3 0.2 0.3 0.2 0.6 0.4 0.9 0.5 0.1 0 0.2 0.1 0.3 0.1 0.3 0.2 0.6 0.5 1 0.7 0.2 0.1 0.3 0.2 0.5 0.3h0.1c0.3 0.3 0.7 0.5 1 0.8 0.3 0.3 0.5 0.5 0.9 0.7 0 0 0 0 0 0.1 0.1 0.2 0.2 0.3 0.4 0.4 0.2 0.1 0.3 0.2 0.4 0.3 0.3 0.2 0.6 0.4 0.8 0.6 0.1 0.1 0.2 0.2 0.4 0.4 0.1 0.1 0.2 0.2 0.3 0.2 0.4 0.1 0.6 0.4 0.9 0.7 0.2 0.2 0.5 0.5 0.7 0.7 0.1 0.1 0.2 0.3 0.3 0.5 0.2 0.6 0.5 1.2 0.8 1.7 0 0 0 0.1 0.1 0.2v0.1c0.2 0.2 0.3 0.5 0.5 0.7 0.1 0.1 0.1 0.2 0.2 0.3 0.2 0.3 0.3 0.7 0.5 1 0.3 0.5 0.5 1 0.7 1.5v0.1c0.1 0.2 0.2 0.4 0.3 0.7 0 0.2 0.2 0.4 0.3 0.7 0.1 0.5 0.4 1 0.5 1.6 0 0.1 0.1 0.2 0.1 0.4 0.1 0.3 0.2 0.6 0.3 0.9 0 0.1 0.1 0.2 0.2 0.3 0.2 0.2 0.2 0.4 0.2 0.6-0.1 0.4 0 0.8 0.1 1.2 0 0.1 0 0.2 0 0.4 0.1 0.4 0.2 0.9 0.2 1.3 0 0.1 0 0.3 0 0.4 0 0.3 0.1 0.6 0.3 0.9 0 0.1 0.1 0.1 0.1 0.1 0.1 0.1 0.2 0.3 0.3 0.4 0.1 0.1 0.1 0.1 0.2 0.2 0.2 0.2 0.3 0.4 0.3 0.7 0 0.1-0.1 0.3-0.1 0.4 0 0.1 0 0.3 0.1 0.4 0.1 0.1 0.1 0.2 0.1 0.3 0 0.1-0.1 0.2-0.2 0.2v0c-0.1 0.3-0.5 0.4-0.6 0.7-0.1 0.4-0.2 0.8-0.3 1.2-0.1 0.3-0.1 0.5-0.1 0.8 0 0.3-0.1 0.5-0.1 0.8-0.1 0.4-0.2 0.8-0.3 1.2 0 0.2-0.1 0.4-0.1 0.6 0.1 0.1 0.2 0.2 0.3 0.2 0.2 0.2 0.4 0.4 0.6 0.6 0.1 0.1 0.1 0.2 0 0.2-0.1 0.1-0.2 0.1-0.3 0.1-0.1-0.1-0.3-0.2-0.4-0.2-0.1-0.1-0.3-0.2-0.5-0.1 0 0.2-0.1 0.4-0.1 0.5-0.1 0.2-0.2 0.5-0.2 0.7-0.1 0.4-0.3 0.7-0.4 1.1-0.2 0.5-0.4 0.9-0.6 1.3-0.1 0.2-0.2 0.4-0.3 0.6v0c0 0.3-0.3 0.6-0.4 0.9-0.2 0.4-0.4 0.8-0.6 1.3-0.1 0.2-0.2 0.4-0.3 0.5-0.2 0.5-0.4 0.9-0.7 1.3-0.2 0.3-0.4 0.5-0.6 0.6-0.2 0.2-0.4 0.4-0.6 0.6-0.1 0.1-0.2 0.2-0.3 0.3-0.1 0.1-0.1 0.1-0.2 0.2-0.2 0.3-0.5 0.5-0.7 0.8-0.2 0.2-0.3 0.4-0.6 0.6-0.2 0.2-0.4 0.5-0.7 0.6-0.1 0.1-0.2 0.3-0.3 0.4-0.1 0.1-0.2 0.3-0.3 0.4 0 0.2 0.1 0.4 0.1 0.5 0 0.3-0.3 0.4-0.5 0.2-0.3-0.2-0.3-0.2-0.6 0-0.3 0.2-0.6 0.5-1 0.6-0.1 0-0.1 0.1-0.2 0.1-0.2 0.1-0.3 0.3-0.5 0.4-0.2 0.2-0.5 0.3-0.7 0.5-0.1 0.1-0.2 0.1-0.3 0.2-0.3 0.2-0.6 0.3-0.9 0.6-0.1 0.1-0.2 0.1-0.3 0.2 0 0.1 0 0.1 0 0.2 0 0.2-0.2 0.4-0.5 0.3-0.3-0.1-0.5 0-0.8 0-0.3 0.1-0.6 0.3-0.9 0.4-0.1 0-0.2 0.1-0.3 0.2-0.3 0.2-0.6 0.3-0.9 0.4-0.2 0-0.4 0.2-0.6 0.2-0.1 0-0.2 0.1-0.3 0.1h-0.1c-0.4 0.3-0.8 0.5-1.2 0.8-0.1 0-0.1 0.1-0.2 0.2-0.1 0.2-0.2 0.3-0.4 0.3-0.5 0-0.7 0.4-0.6 0.8 0 0.1 0.1 0.2 0.1 0.3 0.1 0.2 0 0.4-0.1 0.5-0.1 0.1-0.4 0.1-0.5-0.1-0.2-0.2-0.3-0.4-0.4-0.7-0.1-0.2-0.3-0.4-0.5-0.5-0.2-0.1-0.4-0.1-0.6 0-0.1 0-0.1 0.1-0.2 0.1-0.2 0.2-0.5 0.3-0.8 0.2-0.1 0-0.3 0-0.3 0.1-0.1 0.1-0.1 0.3 0 0.4 0.2 0.2 0.1 0.4 0.1 0.7 0 0.4-0.3 0.6-0.7 0.4-0.1-0.1-0.2-0.1-0.3-0.2-0.1 0-0.1-0.1-0.1-0.2-0.1-0.1-0.1-0.3-0.2-0.5-0.2 0.1-0.4 0.1-0.6 0.2-0.1 0-0.2 0.1-0.3 0.1-0.3 0-0.4 0-0.5-0.3-0.1-0.3-0.3-0.3-0.5-0.4-0.4-0.1-0.9-0.1-1.3-0.3h-0.1c-0.4-0.3-0.8-0.3-1.3-0.3-0.3 0-0.6 0.1-0.9 0.1-0.3 0-0.5 0.1-0.7 0.3-0.1 0.1-0.2 0.2-0.3 0.2-0.1-0.1-0.1-0.2-0.2-0.3v-0.1c0-0.1-0.1-0.2-0.2-0.1-0.2 0.1-0.4-0.1-0.6-0.2-0.1-0.1-0.3-0.3-0.3-0.5-0.1-0.1-0.2-0.2-0.3-0.2-0.2 0-0.5-0.1-0.7-0.1-0.1 0-0.2 0-0.2-0.1-0.1-0.1-0.2-0.1-0.4-0.1-0.1 0-0.1-0.1-0.2-0.1 0.2 0.2 0.3 0.4 0.4 0.6 0 0.1 0.1 0.1 0.1 0.2 0.1 0.2 0 0.3-0.3 0.3-0.2 0-0.2 0-0.3 0.1 0 0.2 0 0.3 0 0.5 0 0.1 0 0.2-0.2 0.3 0 0-0.1 0-0.1 0.1-0.1 0.1-0.1 0.2 0 0.3 0.3 0.2 0.5 0.3 0.8 0.4 0.3 0 0.3 0.2 0.4 0.4 0.1 0.2 0 0.3-0.1 0.5-0.2 0.2-0.4 0.4-0.6 0.6-0.3 0.1-0.5 0.4-0.8 0.4-0.2 0-0.4-0.1-0.5-0.3-0.1-0.5-0.1-0.9 0.1-1.4 0-0.1 0.1-0.2 0-0.3-0.9 0-0.9-0.2-0.9-0.3 0-0.2 0.1-0.3 0.1-0.5 0.1-0.2 0-0.3-0.3-0.4-0.1 0-0.2 0-0.3 0-0.1 0-0.1-0.1-0.3-0.1 0.2-0.1 0.3-0.1 0.5-0.2-0.1-0.4-0.2-0.7-0.5-0.9-0.1-0.1-0.2-0.2-0.2-0.4 0-0.3-0.2-0.5-0.3-0.7-0.2-0.3-0.6-0.4-0.9-0.4-0.3-0.1-0.5-0.1-0.8-0.2-0.3-0.1-0.6-0.4-0.9-0.5-0.1-0.1-0.2-0.2-0.4-0.3-0.4-0.2-0.7-0.5-1-0.8-0.2-0.1-0.3-0.3-0.5-0.4-0.2-0.2-0.3-0.4-0.5-0.5-0.2-0.2-0.4-0.4-0.7-0.6-0.3-0.2-0.5-0.5-0.8-0.8-0.2-0.3-0.5-0.5-0.8-0.7-0.1 0-0.2 0-0.3 0-0.1 0-0.2 0.1-0.3 0.1-0.3 0.1-0.5 0.3-0.8 0.4 0.1-0.1 0.1-0.1 0-0.3-0.1-0.1-0.2-0.2-0.3-0.2-0.2 0-0.4 0-0.6 0-0.4 0-0.8 0.1-1.2 0.1-0.3 0-0.7 0.1-1 0.2 0.1 0.2 0.1 0.3 0.2 0.5-0.2 0.1-0.4 0.1-0.6 0.1-0.1 0-0.3 0.1-0.4 0.2-0.1 0-0.1 0.1-0.2 0-0.2-0.1-0.4 0-0.6 0.1h-0.1c0 0 0-0.1 0.1-0.1 0.1-0.1 0.2-0.2 0.3-0.3 0.1-0.1 0.2-0.1 0.4-0.2-0.1-0.1-0.1-0.2-0.1-0.2-0.1-0.1-0.2-0.1-0.3 0-0.1 0.1-0.2 0.2-0.3 0.3-0.1 0.1-0.2 0.1-0.3 0-0.1-0.1-0.1-0.2 0-0.3 0-0.1 0.1-0.2 0.2-0.3 0.1-0.1 0.1-0.2 0.2-0.3-0.2-0.2-0.3-0.4-0.5-0.5-0.3-0.2-0.6-0.5-0.8-0.8-0.2-0.4-0.5-0.7-0.9-0.9-0.1-0.1-0.2-0.2-0.3-0.3-0.1-0.1-0.1-0.1-0.2-0.2-0.3 0.1-0.5 0.3-0.8 0.4-0.1 0-0.1 0.1-0.2 0.2-0.1 0.2-0.3 0.2-0.5 0.2-0.1 0-0.2-0.1-0.1-0.2 0.1-0.2 0.2-0.4 0.5-0.3 0 0 0.1 0 0.1-0.1 0.2-0.2 0.4-0.5 0.7-0.7-0.1-0.3-0.3-0.5-0.4-0.7-0.1-0.1-0.1-0.2-0.1-0.4 0-0.1 0-0.1-0.1-0.2 0 0-0.1 0-0.2 0.1-0.1 0.1-0.3 0.2-0.5 0 0-0.1 0-0.2 0.1-0.3l0.1-0.1c0.3-0.1 0.3-0.4 0.3-0.7v-0.1c-0.1-0.2-0.1-0.3 0.1-0.5 0.3-0.2 0.6-0.6 0.7-0.9 0.1-0.2 0.3-0.3 0.5-0.5 0.2-0.2 0.4-0.4 0.5-0.7h0.1c0.4 0.1 0.5-0.2 0.7-0.5 0-0.1 0-0.2 0.1-0.2 0.2-0.2 0.2-0.4 0.1-0.7 0-0.1-0.1-0.3-0.1-0.4 0-0.1 0-0.1-0.1-0.2-0.3-0.2-0.3-0.4 0-0.6 0.2-0.1 0.2-0.3 0.3-0.4 0.1-0.2 0.1-0.4 0.1-0.7-0.1-0.3-0.1-0.7-0.2-1-0.1-0.4-0.2-0.9-0.3-1.3 0-0.1 0-0.1 0-0.2 0-0.3 0-0.5-0.1-0.8-0.1-0.1-0.1-0.3-0.1-0.4-0.1-0.3-0.2-0.5-0.5-0.6-0.3-0.2-0.7-0.3-1-0.5-0.1-0.1-0.2 0-0.3 0.1-0.1 0.2-0.3 0.4-0.4 0.6-0.1 0.1-0.2 0.3-0.3 0.5-0.2 0.2-0.6 0.4-0.9 0.1-0.1-0.2-0.2-0.3 0-0.5 0.2-0.3 0.4-0.6 0.7-0.8 0.1-0.1 0.2-0.3 0.3-0.4 0.1-0.2 0.1-0.4 0.1-0.6-0.1-0.4-0.2-0.8-0.2-1.3 0-0.5 0-0.9 0.1-1.4 0.1-0.2 0.1-0.5 0.2-0.7 0-0.1 0.1-0.3 0.2-0.4 0.2-0.2 0.4-0.4 0.5-0.7 0.1-0.3 0.3-0.6 0.3-0.9 0-0.1 0.1-0.2 0.1-0.3 0-0.1 0.1-0.3 0.1-0.4-0.1-0.3 0-0.5 0.1-0.7 0.1-0.2 0.2-0.5 0.3-0.7 0.2-0.4 0.2-0.9 0.6-1.3 0.1-0.2 0.2-0.4 0.3-0.6 0.1-0.4 0.3-0.7 0.5-1 0.1-0.1 0.1-0.1 0.1-0.2 0.1-0.3 0.3-0.6 0.5-0.9 0.2-0.3 0.2-0.6 0.3-0.9 0-0.1 0-0.2 0.1-0.3 0.3-0.3 0.2-0.7 0.1-1.1-0.2-0.5-0.3-1-0.2-1.5 0-0.1 0-0.2 0.1-0.2 0.1-0.2 0.1-0.3 0.2-0.5v-0.1c0.2-0.2 0.4-0.5 0.7-0.6 0.4-0.2 0.8-0.3 1.3-0.4 0.4 0 0.8-0.2 1.1-0.6 0-0.1 0.1-0.1 0.2-0.2l0.1-0.1c0.1-0.2 0.2-0.3 0.3-0.4 0.2-0.2 0.4-0.5 0.6-0.7 0.2-0.2 0.4-0.5 0.7-0.8l0.1-0.1c0.2-0.2 0.4-0.4 0.6-0.5 0.2-0.2 0.4-0.4 0.6-0.6 0.2-0.2 0.3-0.4 0.5-0.6 0.2-0.1 0.4-0.3 0.6-0.5 0.2-0.2 0.4-0.4 0.5-0.5 0.2-0.2 0.5-0.4 0.7-0.5 0.2-0.1 0.4-0.2 0.5-0.5 0.1-0.3 0.2-0.5 0.3-0.8 0-0.2 0.1-0.4 0.2-0.6 0.1 0 0.2 0 0.4-0.1-0.1-0.1-0.2-0.1-0.2-0.2 0-0.1 0.1-0.2 0.1-0.2 0-0.1 0.1-0.2 0.1-0.3 0 0 0.1 0 0.1-0.1 0 0 0.1 0 0.1-0.1-0.2 0.1-0.3 0-0.4-0.1 0.1 0.1 0.2 0.1 0.4 0.2 0 0 0.1 0 0.1-0.1 0-0.1 0-0.2 0-0.2 0 0-0.1 0-0.2 0-0.1 0-0.2 0.1-0.3 0.1zM54 70.5c0-0.1-0.1-0.1-0.1-0.2-0.1-0.2 0-0.3 0.1-0.4 0.1-0.1 0.2-0.1 0.4-0.1 0.2 0.1 0.3 0.2 0.3 0.4 0 0.1 0 0.3 0 0.4 0.1 0.4 0.1 0.4 0.5 0.4 0.2 0 0.4 0 0.6 0 0.4-0.1 0.8-0.3 1.2-0.4 0.4-0.1 0.8-0.2 1.2-0.3 0.1 0 0.2 0 0.4 0 0.4 0.1 0.7 0 1-0.2 0.1-0.1 0.3-0.1 0.4-0.2 0.2-0.1 0.4-0.1 0.6-0.2 0.5-0.3 1-0.5 1.4-0.8 0.3-0.2 0.6-0.4 0.9-0.6 0.3-0.2 0.6-0.4 0.9-0.6 0.2-0.1 0.5-0.3 0.7-0.5 0.4-0.3 0.7-0.6 1.1-0.8 0.2-0.1 0.3-0.2 0.4-0.3 0.2-0.1 0.3-0.3 0.5-0.4 0.1-0.1 0.2-0.2 0.4-0.3 0.1-0.1 0.1-0.1 0.1-0.2 0.3-0.2 0.6-0.6 0.8-0.9 0.2-0.2 0.4-0.4 0.6-0.7 0.3-0.3 0.5-0.7 0.8-1.1 0.2-0.2 0.4-0.5 0.5-0.7 0.2-0.4 0.4-0.8 0.7-1.1v-0.1c0.2-0.4 0.4-0.8 0.6-1.2 0.3-0.5 0.5-1.1 0.8-1.6 0.1-0.2 0.2-0.4 0.2-0.6 0.2-0.4 0.3-0.8 0.4-1.2 0-0.1 0-0.1 0.1-0.2 0.3-0.6 0.5-1.2 0.6-1.9 0.1-0.4 0.2-0.8 0.3-1.2 0.2-0.6 0.2-1.1 0.3-1.7 0.1-0.4 0.1-0.9 0.1-1.3 0.1-0.6 0.1-1.3 0-1.9 0-0.5-0.1-1.1-0.1-1.6 0-0.5-0.1-0.9-0.2-1.4-0.1-0.5-0.2-0.9-0.3-1.4-0.2-0.4-0.3-0.8-0.4-1.3-0.1-0.4-0.3-0.7-0.3-1.1 0-0.3-0.1-0.6-0.4-0.7-0.3-0.1-0.5-0.2-0.8-0.4-0.6-0.4-0.9-0.9-0.8-1.5 0-0.3 0.1-0.7 0.2-1 0.1-0.3 0.2-0.6 0-0.8-0.1-0.3-0.3-0.5-0.4-0.7-0.2-0.3-0.3-0.5-0.5-0.7-0.2-0.4-0.4-0.8-0.7-1.1-0.4-0.5-0.7-1-1.2-1.4l-0.1-0.1c-0.3-0.4-0.6-0.8-1-1.1-0.2-0.2-0.4-0.4-0.6-0.5-0.1-0.1-0.2-0.2-0.4-0.3-0.3-0.2-0.6-0.3-0.8-0.5-0.3-0.3-0.7-0.5-1-0.7 0 0-0.1 0-0.1-0.1-0.4-0.2-0.7-0.3-1.1-0.5-0.4-0.2-0.8-0.3-1.2-0.3-0.1 0-0.1 0-0.2 0-0.1-0.1-0.3-0.1-0.4-0.1-0.1 0-0.1 0-0.2 0-0.2-0.1-0.5 0-0.7 0-0.4 0.1-0.8 0.1-1.2-0.1-0.5-0.2-0.9-0.4-1.3-0.6-0.3-0.2-0.5-0.4-0.8-0.6-0.6-0.5-1.2-1.1-1.9-1.6 0.1-0.5-0.1-0.6-0.5-0.6-0.2 0-0.4 0.1-0.6 0.2-0.1 0.1-0.1 0.1-0.2 0.2-0.3 0.2-0.5 0.5-0.8 0.7-0.5 0.3-0.7 0.2-1.1 0-0.1-0.1-0.2-0.2-0.3-0.3-0.2-0.2-0.4-0.5-0.5-0.7-0.2-0.4-0.6-0.4-1-0.4-0.2 0-0.5 0.1-0.7 0.1-0.4 0-0.8 0.2-1 0.5-0.2 0.3-0.4 0.6-0.7 0.9-0.1 0.1-0.3 0.2-0.4 0.4-0.2 0.2-0.4 0.2-0.6 0-0.1-0.1-0.2-0.1-0.3-0.2-0.1 0.1-0.2 0.2-0.2 0.3-0.1 0.2-0.2 0.4-0.3 0.7-0.1 0.3-0.3 0.6-0.5 0.8-0.1 0.1-0.1 0.1-0.2 0.2-0.1 0.2-0.4 0.3-0.6 0.3-0.2 0.2-0.4 0.5-0.5 0.7-0.1 0.2-0.2 0.4-0.3 0.7-0.1 0.1-0.1 0.3-0.2 0.4-0.1 0.2-0.1 0.3-0.1 0.5 0.1 0.3-0.1 0.4-0.4 0.5-0.2 0-0.2 0-0.3 0.2 0 0.3 0.1 0.5 0.2 0.8 0.1 0.1 0.2 0.3 0.2 0.4 0 0.2 0.1 0.3 0.3 0.4 0.1 0.1 0.2 0.2 0.3 0.2 0.1 0 0.1 0.1 0.2 0.1 0.1 0.1 0.2 0 0.2-0.1 0.1-0.3 0.2-0.6 0.2-0.9 0.1-0.4 0.1-0.7 0.2-1.1 0.1-0.2 0.2-0.3 0.3-0.4 0 0 0.1 0 0.2 0v0.1c-0.1 0.5-0.3 1.1-0.4 1.6-0.1 0.2-0.1 0.4-0.2 0.6 0 0.1-0.1 0.2-0.2 0.2-0.2 0.1-0.4 0.2-0.6 0.2-0.1 0-0.2 0-0.3 0-0.2-0.1-0.4-0.3-0.6-0.4-0.1-0.1-0.2-0.2-0.3-0.3-0.1-0.2-0.2-0.4-0.3-0.6-0.1-0.2-0.2-0.3-0.4-0.4-0.1-0.1-0.2-0.1-0.3-0.2-0.2-0.2-0.4-0.3-0.7-0.3-0.1 0-0.3 0-0.4 0-0.1 0-0.3 0.1-0.4 0.2-0.2 0.1-0.3 0.1-0.5 0-0.5-0.2-1-0.1-1.5 0.1-0.2 0.1-0.4 0.2-0.6 0.2-0.5 0-0.9 0-1.4 0-0.5 0-0.9-0.1-1.4-0.2-0.2 0-0.4 0-0.6 0-0.4 0.1-0.5 0.4-0.4 0.8 0.1 0.4 0.2 0.9 0.2 1.3 0 0.3 0 0.6 0 0.9 0 0.2 0 0.3 0 0.5 0 0.3-0.1 0.6-0.1 0.9-0.1 0.6-0.4 1.1-0.8 1.5-0.3 0.3-0.7 0.6-1.1 0.7-0.2 0.1-0.4 0.2-0.7 0.3-0.5 0.2-0.9 0.6-1.2 1.1-0.1 0.2-0.2 0.4-0.3 0.6-0.2 0.3-0.3 0.5-0.5 0.8-0.1 0.2-0.3 0.4-0.4 0.6-0.1 0.2-0.3 0.3-0.3 0.5-0.2 0.4-0.3 0.8-0.5 1.2-0.1 0.2-0.1 0.5-0.2 0.7-0.2 0.4-0.2 0.8-0.2 1.3 0 0.1 0 0.2 0 0.4 0 0.5-0.1 1.1-0.1 1.6 0 0.5 0 1 0.1 1.5 0 0.2 0 0.5 0 0.7 0 0.4 0.1 0.9 0.1 1.3 0 0.4 0 0.9 0.2 1.3v0.1c0.1 0.4 0.1 0.8 0.2 1.2 0 0.1 0 0.2 0.1 0.3 0.2 0.6 0.3 1.1 0.5 1.7 0.1 0.4 0.3 0.8 0.4 1.2 0.1 0.4 0.5 0.8 0.6 1.3v0c0.3 0.6 0.6 1.2 1 1.8 0.1 0.2 0.3 0.4 0.4 0.6 0.2 0.3 0.3 0.6 0.5 0.8 0.1 0.2 0.3 0.4 0.4 0.5 0.1 0.2 0.2 0.4 0.4 0.6 0.2 0.2 0.4 0.5 0.6 0.7 0.3 0.5 0.7 0.9 1.1 1.2 0.2 0.2 0.4 0.3 0.6 0.5 0.1 0.1 0.2 0.1 0.2 0.2 0.1 0.1 0.2 0.2 0.4 0.3 0.8 0.4 1.4 1 2.1 1.6 0.3 0.3 0.6 0.6 1 0.8 0.4 0.3 0.7 0.6 1.2 0.7 0 0 0.1 0 0.1 0.1 0.2 0.2 0.5 0.3 0.7 0.4 0.4 0.2 0.9 0.4 1.3 0.6 0.1 0.1 0.3 0.1 0.4 0.2 0.3 0.1 0.6 0.2 0.9 0.3 0.3 0.1 0.5 0.2 0.8 0.2h0.1c0.2 0.1 0.3 0.1 0.5 0 0.1 0 0.2 0 0.2 0.1 0 0.1 0.1 0.1 0.2 0.1 0.1 0 0.2 0 0.4 0 0.1-0.1 0.1-0.2 0.2-0.4 0.1 0.1 0.2 0.1 0.2 0.1 0.1 0.2 0.3 0.2 0.5 0.2h0.1c0.2 0 0.3 0 0.4-0.1 0-0.1 0.2-0.1 0.3-0.1 0.3 0.1 0.6 0.1 0.9 0.2 0.2 0.1 0.5 0.1 0.6-0.1 0.1-0.1 0.2-0.2 0.4-0.1 0.2 0.1 0.3 0.1 0.5 0 0.1 0 0.2 0 0.2 0 0.3 0.1 0.5 0.1 0.8 0.2 0.4 0.1 0.4 0.1 0.7-0.2 0.1-0.1 0.3-0.1 0.4 0 0.1 0.2 0.1 0.3 0.1 0.5 0.1 0 0.1 0 0.2-0.1 0-0.2 0.1-0.2 0.3-0.3 0.1 0.1 0.1 0.1 0.2 0.1 0.2 0.2 0.3 0.2 0.4-0.1 0-0.1 0-0.2 0.1-0.2 0.1 0 0.2 0.1 0.2 0.1 0.1 0.2 0.3 0.3 0.4 0.5 0.2 0.2 0.5 0.2 0.6 0 0.1-0.1 0.2-0.1 0.3-0.1 0-0.1 0-0.2 0-0.3 0.3 0.2 0.2 0.2 0.1 0.2zM37.4 23.8c0.3 0.1 0.5 0.1 0.6-0.1-0.2 0.1-0.4-0.1-0.6 0.1z" fill="black" fillRule="nonzero" stroke="none" strokeWidth="1" strokeLinecap="butt" strokeLinejoin="miter" stroke-miterlimit="10" stroke-dasharray="" stroke-dashoffset="0" font-family="none" font-weight="none" font-size="none" text-anchor="none" style="mix-blend-mode: normal"></path></g><g transform="matrix(1,0,0,1,64,119.7323389365591)"><svg viewBox="0 0 192 120.5353221268818" height="120.5353221268818" width="192"><g><svg viewBox="0 0 192 120.5353221268818" height="120.5353221268818" width="192"><g transform="matrix(1,0,0,1,0,60.484860990369704)"><svg viewBox="0 0 192 60.050461136512084" height="60.050461136512084" width="192"><g id="SvgjsG2024"><svg viewBox="0 0 192 60.050461136512084" height="60.050461136512084" width="192" id="SvgjsSvg2023"><g><svg viewBox="0 0 192 60.050461136512084" height="60.050461136512084" width="192"><path d="M191.55 12.88C190.648 6.646 188.075 4.914 188.075 4.914 180.177-1.507 170.321-0.123 161.466 0.8 145.832 0.837 130.262 2.208 114.664 2.944 81.926 3.056 48.907 1.211 16.331 5.761 13.271 7.158-3.175 6.036 0.544 13.678 1.519 16.856 5.075 20.384 4.967 23.302 5.455 23.813 6.132 22.641 6.42 23.376 7.431 25.359 9.083 24.424 10.437 25.595 8.551 28.725 9.905 31.33 11.195 34.06 8.921 34.771 6.005 34.434 4.696 36.79 4.561 38.498 3.83 38.174 3.027 38.099 2.44 38.049 1.257 38.236 1.456 38.772 2.133 40.605-0.774 41.665 1.05 43.46-0.205 45.405 1.916 47.088 1.627 49.194 1.591 49.618 1.79 49.98 2.106 50.08 3.505 50.616 1.465 51.663 1.682 52.797 16.033 60.551 31.604 55.191 46.308 58.756 50.126 56.263 47.256 59.641 48.781 59.118 49.972 58.507 50.839 61.038 52.184 59.604 52.392 59.192 52.076 58.22 52.816 58.407 53.204 58.507 53.547 58.482 53.601 57.908 53.682 57.048 52.969 57.584 52.78 57.136 54.829 54.867 54.323 60.265 56.246 60.04 56.156 59.379 55.596 58.432 56.742 58.557 57.88 57.609 57.916 56.824 58.927 58.956 58.963 59.417 59.143 59.741 59.432 59.965 62.591 57.647 65.732 60.788 69.045 59.741 71.076 58.594 73.026 60.364 75.084 59.928 75.806 59.579 76.537 58.956 77.232 60.003 85.744 60.227 94.815 59.292 102.885 60.04 124.449 58.644 147.493 60.614 170.23 58.769 175.592 58.058 181.161 57.048 186.387 56.238 186.387 56.238 190.621 54.019 190.621 44.046S191.523 35.319 191.659 27.378C191.794 19.437 192.426 19.113 191.523 12.88Z" opacity="1" fill="black"></path><g transform="matrix(1,0,0,1,27.072000000000003,19.1)"><svg width="137.856" viewBox="1.5 -35.95 229.63 36.400000000000006" height="21.850461136512084" data-palette-color="#000000"><path d="M19.7 0.25L19.7 0.25Q17.95 0.25 16.65-0.9 15.35-2.05 15.35-4.65L15.35-4.65Q15.35-4.9 15.35-5.15 15.35-5.4 15.4-5.65L15.4-5.65Q13.9-2.65 12.03-1.23 10.15 0.2 8.25 0.2L8.25 0.2Q6.5 0.2 4.95-1.03 3.4-2.25 2.45-4.65 1.5-7.05 1.5-10.45L1.5-10.45Q1.5-13.95 2.48-16.7 3.45-19.45 5.05-21.35 6.65-23.25 8.55-24.23 10.45-25.2 12.25-25.2L12.25-25.2Q14.25-25.2 15.85-23.98 17.45-22.75 18.05-20.1L18.05-20.1Q18.2-20.95 18.28-21.65 18.35-22.35 18.35-22.6L18.35-22.6Q18.4-23.95 19.73-24.6 21.05-25.25 22.65-25.25L22.65-25.25Q24.05-25.25 25.3-24.7 26.55-24.15 27-22.85L27-22.85 27.1-22.55Q26.5-21.2 25.9-19.3 25.3-17.4 24.8-15.33 24.3-13.25 24-11.28 23.7-9.3 23.7-7.8L23.7-7.8Q23.7-6.15 24.05-5.53 24.4-4.9 24.9-4.9L24.9-4.9Q25.75-4.9 26.45-6.1L26.45-6.1 26.85-5.9Q26.85-4.2 25.75-2.8 24.65-1.4 23-0.58 21.35 0.25 19.7 0.25ZM11.55-6.1L11.55-6.1Q12.85-6.1 14.43-8.43 16-10.75 17.15-15.1L17.15-15.1Q17.25-15.55 17.35-15.98 17.45-16.4 17.5-16.8L17.5-16.8Q16.7-18.65 15.83-19.43 14.95-20.2 14.1-20.2L14.1-20.2Q12.85-20.2 11.78-18.88 10.7-17.55 10.03-15.55 9.35-13.55 9.35-11.55L9.35-11.55Q9.35-8.8 9.98-7.45 10.6-6.1 11.55-6.1ZM35.55 0.15L35.55 0.15Q33.7 0.15 32.2-1.33 30.7-2.8 30.7-5.45L30.7-5.45Q30.7-6.75 31.05-8.4 31.4-10.05 31.82-11.75 32.25-13.45 32.6-14.95 32.95-16.45 32.95-17.4L32.95-17.4Q32.95-18.4 32.55-18.98 32.15-19.55 31.5-19.55L31.5-19.55Q30.65-19.55 29.65-18.55L29.65-18.55 29.35-18.75Q29.3-19.55 29.7-20.65 30.1-21.75 30.92-22.78 31.75-23.8 33.05-24.5 34.35-25.2 36.15-25.2L36.15-25.2Q38.8-25.2 40.07-23.68 41.35-22.15 41.35-19.95L41.35-19.95Q41.35-19.15 41.2-18.4L41.2-18.4Q42.25-19.95 43.8-21.53 45.35-23.1 47.22-24.15 49.1-25.2 51.1-25.2L51.1-25.2Q53.45-25.2 54.3-23.7 55.15-22.2 55.15-19.95L55.15-19.95Q55.15-17.85 54.7-15.45 54.25-13.05 53.8-10.83 53.35-8.6 53.35-7.1L53.35-7.1Q53.35-5.1 54.5-5.1L54.5-5.1Q55.1-5.1 55.55-5.48 56-5.85 56.15-6.2L56.15-6.2 56.5-6.05Q56.5-4.2 55.47-2.8 54.45-1.4 52.9-0.63 51.35 0.15 49.75 0.15L49.75 0.15Q47.8 0.15 46.3-1.2 44.8-2.55 44.8-5.6L44.8-5.6Q44.8-7.4 45.27-9.5 45.75-11.6 46.2-13.55 46.65-15.5 46.65-16.75L46.65-16.75Q46.65-17.5 46.37-17.93 46.1-18.35 45.4-18.35L45.4-18.35Q44.25-18.35 42.87-17.3 41.5-16.25 40.52-14.5 39.55-12.75 39.55-10.65L39.55-10.65Q39.55-9.3 39.87-8.05 40.2-6.8 40.2-5.35L40.2-5.35Q40.2-2.65 38.8-1.25 37.4 0.15 35.55 0.15ZM60.45-10.65L60.45-10.65Q60.15-11.3 60.02-11.93 59.9-12.55 59.9-13.1L59.9-13.1Q59.9-15.05 61.25-16.32 62.6-17.6 64.9-17.6L64.9-17.6Q67.1-17.6 69.27-17.43 71.45-17.25 73.3-17.25L73.3-17.25Q74.7-17.25 75.82-17.43 76.95-17.6 77.65-18.1L77.65-18.1Q78.55-16.45 78.55-15L78.55-15Q78.55-13.3 77.3-12.2 76.05-11.1 73.4-11.1L73.4-11.1Q70.65-11.1 68.55-11.18 66.45-11.25 64.8-11.25L64.8-11.25Q63.45-11.25 62.37-11.15 61.3-11.05 60.45-10.65ZM89.24 0.2L89.24 0.2Q86.34 0.2 84.64-1.33 82.94-2.85 82.94-6.05L82.94-6.05Q82.94-7.9 83.42-10 83.89-12.1 84.34-13.75L84.34-13.75Q84.79-15.35 85.07-16.55 85.34-17.75 85.34-18.4L85.34-18.4Q85.34-19.2 84.99-19.55 84.64-19.9 84.14-19.9L84.14-19.9Q82.94-19.9 82.14-18.75L82.14-18.75 81.94-18.95Q81.99-20.65 83.04-22.08 84.09-23.5 85.74-24.35 87.39-25.2 89.09-25.2L89.09-25.2Q90.99-25.2 92.34-24.08 93.69-22.95 93.59-20.55L93.59-20.55Q93.54-19.5 93.22-17.9 92.89-16.3 92.34-14.1L92.34-14.1Q91.99-12.7 91.62-10.93 91.24-9.15 91.24-7.7L91.24-7.7Q91.24-6.6 91.59-5.95 91.94-5.3 92.74-5.3L92.74-5.3Q93.79-5.3 95.07-6.48 96.34-7.65 97.29-10.33 98.24-13 98.39-17.45L98.39-17.45Q98.54-20.85 97.94-22.4L97.94-22.4 97.94-22.65Q98.39-23.35 99.32-24 100.24-24.65 101.39-25.08 102.54-25.5 103.54-25.5L103.54-25.5Q105.14-25.5 106.27-23.95 107.39-22.4 107.24-18.55L107.24-18.55Q107.14-14.85 105.92-11.85 104.69-8.85 102.74-6.6 100.79-4.35 98.47-2.85 96.14-1.35 93.74-0.58 91.34 0.2 89.24 0.2ZM118.94-26.75L118.94-26.75Q116.94-26.75 115.67-27.98 114.39-29.2 114.39-31.05L114.39-31.05Q114.39-33.05 115.89-34.5 117.39-35.95 119.54-35.95L119.54-35.95Q121.54-35.95 122.82-34.7 124.09-33.45 124.09-31.6L124.09-31.6Q124.09-29.6 122.59-28.18 121.09-26.75 118.94-26.75ZM115.44 0.2L115.44 0.2Q113.49 0.2 111.94-1.18 110.39-2.55 110.39-5.6L110.39-5.6Q110.39-7.35 110.87-8.88 111.34-10.4 111.97-11.85 112.59-13.3 113.07-14.68 113.54-16.05 113.54-17.4L113.54-17.4Q113.54-18.6 113.14-19.13 112.74-19.65 112.19-19.65L112.19-19.65Q111.34-19.65 110.54-18.55L110.54-18.55 110.19-18.75Q110.39-20.75 111.47-22.18 112.54-23.6 114.12-24.4 115.69-25.2 117.24-25.2L117.24-25.2Q119.14-25.2 120.54-23.98 121.94-22.75 121.94-20L121.94-20Q121.94-18.35 121.47-16.53 120.99-14.7 120.37-12.9 119.74-11.1 119.27-9.55 118.79-8 118.79-6.9L118.79-6.9Q118.79-5.95 119.17-5.55 119.54-5.15 119.99-5.15L119.99-5.15Q120.44-5.15 120.87-5.43 121.29-5.7 121.49-6.05L121.49-6.05 121.84-5.95Q121.84-4.1 120.87-2.73 119.89-1.35 118.44-0.58 116.99 0.2 115.44 0.2ZM132.94 0.2L132.94 0.2Q131.14 0.2 129.56-1.05 127.99-2.3 127.01-4.7 126.04-7.1 126.04-10.5L126.04-10.5Q126.04-14 127.04-16.75 128.04-19.5 129.66-21.43 131.29-23.35 133.21-24.35 135.14-25.35 136.99-25.35L136.99-25.35Q139.04-25.35 140.64-24.08 142.24-22.8 142.84-20.1L142.84-20.1Q143.29-22.6 143.61-24.88 143.94-27.15 143.94-28.9L143.94-28.9Q143.94-31.2 143.34-32.25L143.34-32.25 143.34-32.55Q144.49-33.85 145.86-34.48 147.24-35.1 148.49-35.1L148.49-35.1Q150.14-35.1 151.29-34.08 152.44-33.05 152.44-31.15L152.44-31.15Q152.44-30.1 152.09-28.05 151.74-26 151.24-23.38 150.74-20.75 150.21-17.98 149.69-15.2 149.34-12.68 148.99-10.15 148.99-8.3L148.99-8.3Q148.99-6.75 149.31-5.83 149.64-4.9 150.39-4.9L150.39-4.9Q150.94-4.9 151.51-5.28 152.09-5.65 152.29-6.15L152.29-6.15 152.64-5.9Q152.64-4.25 151.59-2.88 150.54-1.5 148.94-0.65 147.34 0.2 145.64 0.2L145.64 0.2Q143.79 0.2 142.71-0.83 141.64-1.85 141.19-3.45 140.74-5.05 140.69-6.75L140.69-6.75Q139.14-3.15 137.06-1.48 134.99 0.2 132.94 0.2ZM136.29-6.15L136.29-6.15Q137.59-6.15 139.19-8.5 140.79-10.85 141.99-15.35L141.99-15.35 142.29-16.9Q141.49-18.75 140.56-19.53 139.64-20.3 138.79-20.3L138.79-20.3Q137.54-20.3 136.44-18.93 135.34-17.55 134.66-15.43 133.99-13.3 133.99-10.95L133.99-10.95Q133.99-8.7 134.64-7.43 135.29-6.15 136.29-6.15ZM165.64 0.35L165.64 0.35Q161.99 0.35 159.59-1.13 157.19-2.6 155.99-5.03 154.79-7.45 154.79-10.25L154.79-10.25Q154.79-12.9 155.81-15.58 156.84-18.25 158.81-20.45 160.79-22.65 163.61-24 166.44-25.35 169.99-25.35L169.99-25.35Q174.39-25.35 176.41-23.38 178.44-21.4 178.44-18.6L178.44-18.6Q178.44-16.2 177.16-14.18 175.89-12.15 173.79-10.93 171.69-9.7 169.19-9.7L169.19-9.7Q167.89-9.7 166.54-10.1 165.19-10.5 163.89-11.35L163.89-11.35Q164.14-8.25 165.69-6.85 167.24-5.45 169.39-5.45L169.39-5.45Q170.89-5.45 172.39-6.03 173.89-6.6 175.16-7.53 176.44-8.45 177.14-9.5L177.14-9.5 177.49-9.25Q177.49-6.65 176.41-4.83 175.34-3 173.59-1.85 171.84-0.7 169.76-0.18 167.69 0.35 165.64 0.35ZM166.79-13.15L166.79-13.15Q168.39-13.15 169.39-14.08 170.39-15 170.89-16.25 171.39-17.5 171.39-18.45L171.39-18.45Q171.39-19.6 170.74-20.38 170.09-21.15 168.94-21.15L168.94-21.15Q168.04-21.15 166.96-20.5 165.89-19.85 165.04-18.28 164.19-16.7 163.94-13.9L163.94-13.9Q165.54-13.15 166.79-13.15ZM191.83 0.35L191.83 0.35Q188.08 0.35 185.63-1.15 183.18-2.65 182.01-5.13 180.83-7.6 180.83-10.4L180.83-10.4Q180.83-13.05 181.81-15.7 182.78-18.35 184.66-20.53 186.53-22.7 189.23-24.03 191.93-25.35 195.43-25.35L195.43-25.35Q199.18-25.35 201.61-23.83 204.03-22.3 205.21-19.8 206.38-17.3 206.38-14.45L206.38-14.45Q206.38-11.85 205.43-9.22 204.48-6.6 202.61-4.42 200.73-2.25 198.03-0.95 195.33 0.35 191.83 0.35ZM193.18-3.9L193.18-3.9Q194.53-3.9 195.43-5.3 196.33-6.7 196.78-8.88 197.23-11.05 197.23-13.3L197.23-13.3Q197.23-15.3 196.86-17.07 196.48-18.85 195.73-19.98 194.98-21.1 193.78-21.1L193.78-21.1Q192.48-21.1 191.56-19.7 190.63-18.3 190.18-16.15 189.73-14 189.73-11.7L189.73-11.7Q189.73-9.7 190.11-7.93 190.48-6.15 191.23-5.03 191.98-3.9 193.18-3.9ZM217.78 0.45L217.78 0.45Q214.68 0.45 212.63-0.4 210.58-1.25 209.58-2.58 208.58-3.9 208.58-5.25L208.58-5.25Q208.58-7.15 210.28-8.63 211.98-10.1 214.88-10.1L214.88-10.1Q214.88-7.55 215.53-6.03 216.18-4.5 217.21-3.85 218.23-3.2 219.18-3.2L219.18-3.2Q220.33-3.2 221.11-3.88 221.88-4.55 221.88-5.55L221.88-5.55Q221.88-6.95 220.43-8 218.98-9.05 216.68-10.35L216.68-10.35Q215.53-11.05 214.18-11.98 212.83-12.9 211.88-14.23 210.93-15.55 210.93-17.4L210.93-17.4Q210.93-19.35 212.06-20.85 213.18-22.35 215.03-23.38 216.88-24.4 219.03-24.93 221.18-25.45 223.23-25.45L223.23-25.45Q227.08-25.45 229.03-23.9 230.98-22.35 230.98-20.6L230.98-20.6Q230.98-19.1 229.48-17.9 227.98-16.7 224.88-16.7L224.88-16.7Q224.93-19.25 223.83-20.43 222.73-21.6 221.48-21.6L221.48-21.6Q220.58-21.6 219.98-21.05 219.38-20.5 219.38-19.45L219.38-19.45Q219.38-18.25 220.16-17.38 220.93-16.5 222.11-15.83 223.28-15.15 224.53-14.55L224.53-14.55Q226.23-13.75 227.73-12.85 229.23-11.95 230.18-10.8 231.13-9.65 231.13-8L231.13-8Q231.13-5.75 229.31-3.83 227.48-1.9 224.43-0.73 221.38 0.45 217.78 0.45Z" opacity="1" transform="matrix(1,0,0,1,0,0)" fill="black" class="wordmark-text-0" id="SvgjsPath2022"></path></svg></g></svg></g></svg></g></svg></g><g transform="matrix(1,0,0,1,68.33675423644677,0)"><svg viewBox="0 0 55.32649152710648 55.32649152710648" height="55.32649152710648" width="55.32649152710648"><g><svg xmlns="http://www.w3.org/2000/svg" xmlns:xlink="http://www.w3.org/1999/xlink" version="1.1" x="0" y="0" viewBox="0 0 512 512" enable-background="new 0 0 512 512" xml:space="preserve" height="55.32649152710648" width="55.32649152710648" class="icon-icon-0" data-fill-palette-color="accent" id="SvgjsSvg2021"><path d="M480 0H32C14.313 0 0 14.328 0 32V480C0 497.688 14.313 512 32 512H480C497.688 512 512 497.687 512 480V32C512 14.328 497.688 0 480 0M432 448H160V464C160 472.844 152.844 480 144 480S128 472.844 128 464V448H80C71.156 448 64 440.844 64 432S71.156 416 80 416H128V400C128 391.156 135.156 384 144 384S160 391.156 160 400V416H432C440.844 416 448 423.156 448 432S440.844 448 432 448M480 352H32V32H480zM356.219 176.125C371.5 184.859 371.5 199.141 356.219 207.875L187.781 304.125C172.5 312.844 160 305.594 160 288V96C160 78.406 172.5 71.141 187.781 79.875z" fill="white"></path></svg></g></svg></g><g></g></svg></g></svg></g></svg></g><defs><mask></mask></defs></svg><rect width="320" height="360" fill="black" stroke="none" visibility="hidden"></rect></g></mask><linearGradient x1="0" x2="1" y1="0.548" y2="0.55" id="29491a70-f5d3-4735-815f-6c14081f05db"><stop stop-color="#ff6cab" offset="0"></stop><stop stop-color="#7366ff" offset="1"></stop></linearGradient><rect width="320.00010932168374" height="360" fill="url(#29491a70-f5d3-4735-815f-6c14081f05db)" mask="url(#b06c5660-e1a8-48d7-99bd-50d68b20cc3b)" data-fill-palette-color="accent"></rect><mask id="4f68da8a-fae2-4a54-925d-4885abca17bf"><g id="SvgjsG2035"><svg viewBox="0 0 320 360" height="360" width="320"><g><svg></svg></g><g><svg viewBox="0 0 320 360" height="360" width="320"><g><path transform="translate(-119.39272,-98.31927) scale(5.58313,5.58313)" d="M36.7 23.5c0-0.2 0.1-0.4 0.3-0.4 0.2 0 0.4 0.1 0.4 0.4 0.1 0 0.3 0 0.4-0.1 0.4 0 0.8-0.1 1.1 0 0.3 0.1 0.5 0.1 0.8 0.2 0.3 0.1 0.5 0 0.7-0.1 0.4-0.1 0.7-0.3 1.1-0.4 0.2-0.1 0.3-0.1 0.5-0.1 0.2-0.1 0.4-0.1 0.7-0.2 0.5-0.1 1-0.2 1.4-0.4 0.4-0.2 0.8-0.2 1.2-0.3 0.2 0 0.3-0.1 0.5-0.2 0.1 0 0.1-0.1 0.2-0.2 0.2-0.1 0.3-0.2 0.5-0.1 0.1 0.1 0.3 0.1 0.4 0h0.1c0.6 0 1.2-0.1 1.9 0 0.1 0 0.2 0 0.2 0 0.3-0.2 0.7-0.2 1.1-0.2 0.1 0 0.3 0 0.4 0h0.1c0.4 0 0.8 0 1.1 0.1 0.3 0 0.5 0.1 0.8 0.2 0.3 0 0.5 0 0.8 0.1 0.2 0 0.4 0 0.6 0 0.1 0 0.2 0 0.2 0 0.4 0.1 0.8 0.1 1.2 0.1 0.3 0.1 0.6 0.2 1 0.2 0.1 0 0.2 0 0.3 0 0.1 0 0.2 0.1 0.3 0.1l0.1 0.1c0.4 0 0.7 0.2 1.1 0.2 0.1 0 0.3 0 0.4 0.1 0.3 0.2 0.7 0.3 1.1 0.3 0.2 0 0.3 0.1 0.4 0.2 0.3 0.1 0.5 0.2 0.8 0.3 0.2 0.1 0.4 0 0.6 0.1 0.3 0.1 0.7 0.2 1 0.5 0.2 0.2 0.4 0.2 0.7 0.4 0.1 0 0.2 0.1 0.3 0.2 0.3 0.2 0.6 0.4 0.9 0.5 0.1 0 0.2 0.1 0.3 0.1 0.3 0.2 0.6 0.5 1 0.7 0.2 0.1 0.3 0.2 0.5 0.3h0.1c0.3 0.3 0.7 0.5 1 0.8 0.3 0.3 0.5 0.5 0.9 0.7 0 0 0 0 0 0.1 0.1 0.2 0.2 0.3 0.4 0.4 0.2 0.1 0.3 0.2 0.4 0.3 0.3 0.2 0.6 0.4 0.8 0.6 0.1 0.1 0.2 0.2 0.4 0.4 0.1 0.1 0.2 0.2 0.3 0.2 0.4 0.1 0.6 0.4 0.9 0.7 0.2 0.2 0.5 0.5 0.7 0.7 0.1 0.1 0.2 0.3 0.3 0.5 0.2 0.6 0.5 1.2 0.8 1.7 0 0 0 0.1 0.1 0.2v0.1c0.2 0.2 0.3 0.5 0.5 0.7 0.1 0.1 0.1 0.2 0.2 0.3 0.2 0.3 0.3 0.7 0.5 1 0.3 0.5 0.5 1 0.7 1.5v0.1c0.1 0.2 0.2 0.4 0.3 0.7 0 0.2 0.2 0.4 0.3 0.7 0.1 0.5 0.4 1 0.5 1.6 0 0.1 0.1 0.2 0.1 0.4 0.1 0.3 0.2 0.6 0.3 0.9 0 0.1 0.1 0.2 0.2 0.3 0.2 0.2 0.2 0.4 0.2 0.6-0.1 0.4 0 0.8 0.1 1.2 0 0.1 0 0.2 0 0.4 0.1 0.4 0.2 0.9 0.2 1.3 0 0.1 0 0.3 0 0.4 0 0.3 0.1 0.6 0.3 0.9 0 0.1 0.1 0.1 0.1 0.1 0.1 0.1 0.2 0.3 0.3 0.4 0.1 0.1 0.1 0.1 0.2 0.2 0.2 0.2 0.3 0.4 0.3 0.7 0 0.1-0.1 0.3-0.1 0.4 0 0.1 0 0.3 0.1 0.4 0.1 0.1 0.1 0.2 0.1 0.3 0 0.1-0.1 0.2-0.2 0.2v0c-0.1 0.3-0.5 0.4-0.6 0.7-0.1 0.4-0.2 0.8-0.3 1.2-0.1 0.3-0.1 0.5-0.1 0.8 0 0.3-0.1 0.5-0.1 0.8-0.1 0.4-0.2 0.8-0.3 1.2 0 0.2-0.1 0.4-0.1 0.6 0.1 0.1 0.2 0.2 0.3 0.2 0.2 0.2 0.4 0.4 0.6 0.6 0.1 0.1 0.1 0.2 0 0.2-0.1 0.1-0.2 0.1-0.3 0.1-0.1-0.1-0.3-0.2-0.4-0.2-0.1-0.1-0.3-0.2-0.5-0.1 0 0.2-0.1 0.4-0.1 0.5-0.1 0.2-0.2 0.5-0.2 0.7-0.1 0.4-0.3 0.7-0.4 1.1-0.2 0.5-0.4 0.9-0.6 1.3-0.1 0.2-0.2 0.4-0.3 0.6v0c0 0.3-0.3 0.6-0.4 0.9-0.2 0.4-0.4 0.8-0.6 1.3-0.1 0.2-0.2 0.4-0.3 0.5-0.2 0.5-0.4 0.9-0.7 1.3-0.2 0.3-0.4 0.5-0.6 0.6-0.2 0.2-0.4 0.4-0.6 0.6-0.1 0.1-0.2 0.2-0.3 0.3-0.1 0.1-0.1 0.1-0.2 0.2-0.2 0.3-0.5 0.5-0.7 0.8-0.2 0.2-0.3 0.4-0.6 0.6-0.2 0.2-0.4 0.5-0.7 0.6-0.1 0.1-0.2 0.3-0.3 0.4-0.1 0.1-0.2 0.3-0.3 0.4 0 0.2 0.1 0.4 0.1 0.5 0 0.3-0.3 0.4-0.5 0.2-0.3-0.2-0.3-0.2-0.6 0-0.3 0.2-0.6 0.5-1 0.6-0.1 0-0.1 0.1-0.2 0.1-0.2 0.1-0.3 0.3-0.5 0.4-0.2 0.2-0.5 0.3-0.7 0.5-0.1 0.1-0.2 0.1-0.3 0.2-0.3 0.2-0.6 0.3-0.9 0.6-0.1 0.1-0.2 0.1-0.3 0.2 0 0.1 0 0.1 0 0.2 0 0.2-0.2 0.4-0.5 0.3-0.3-0.1-0.5 0-0.8 0-0.3 0.1-0.6 0.3-0.9 0.4-0.1 0-0.2 0.1-0.3 0.2-0.3 0.2-0.6 0.3-0.9 0.4-0.2 0-0.4 0.2-0.6 0.2-0.1 0-0.2 0.1-0.3 0.1h-0.1c-0.4 0.3-0.8 0.5-1.2 0.8-0.1 0-0.1 0.1-0.2 0.2-0.1 0.2-0.2 0.3-0.4 0.3-0.5 0-0.7 0.4-0.6 0.8 0 0.1 0.1 0.2 0.1 0.3 0.1 0.2 0 0.4-0.1 0.5-0.1 0.1-0.4 0.1-0.5-0.1-0.2-0.2-0.3-0.4-0.4-0.7-0.1-0.2-0.3-0.4-0.5-0.5-0.2-0.1-0.4-0.1-0.6 0-0.1 0-0.1 0.1-0.2 0.1-0.2 0.2-0.5 0.3-0.8 0.2-0.1 0-0.3 0-0.3 0.1-0.1 0.1-0.1 0.3 0 0.4 0.2 0.2 0.1 0.4 0.1 0.7 0 0.4-0.3 0.6-0.7 0.4-0.1-0.1-0.2-0.1-0.3-0.2-0.1 0-0.1-0.1-0.1-0.2-0.1-0.1-0.1-0.3-0.2-0.5-0.2 0.1-0.4 0.1-0.6 0.2-0.1 0-0.2 0.1-0.3 0.1-0.3 0-0.4 0-0.5-0.3-0.1-0.3-0.3-0.3-0.5-0.4-0.4-0.1-0.9-0.1-1.3-0.3h-0.1c-0.4-0.3-0.8-0.3-1.3-0.3-0.3 0-0.6 0.1-0.9 0.1-0.3 0-0.5 0.1-0.7 0.3-0.1 0.1-0.2 0.2-0.3 0.2-0.1-0.1-0.1-0.2-0.2-0.3v-0.1c0-0.1-0.1-0.2-0.2-0.1-0.2 0.1-0.4-0.1-0.6-0.2-0.1-0.1-0.3-0.3-0.3-0.5-0.1-0.1-0.2-0.2-0.3-0.2-0.2 0-0.5-0.1-0.7-0.1-0.1 0-0.2 0-0.2-0.1-0.1-0.1-0.2-0.1-0.4-0.1-0.1 0-0.1-0.1-0.2-0.1 0.2 0.2 0.3 0.4 0.4 0.6 0 0.1 0.1 0.1 0.1 0.2 0.1 0.2 0 0.3-0.3 0.3-0.2 0-0.2 0-0.3 0.1 0 0.2 0 0.3 0 0.5 0 0.1 0 0.2-0.2 0.3 0 0-0.1 0-0.1 0.1-0.1 0.1-0.1 0.2 0 0.3 0.3 0.2 0.5 0.3 0.8 0.4 0.3 0 0.3 0.2 0.4 0.4 0.1 0.2 0 0.3-0.1 0.5-0.2 0.2-0.4 0.4-0.6 0.6-0.3 0.1-0.5 0.4-0.8 0.4-0.2 0-0.4-0.1-0.5-0.3-0.1-0.5-0.1-0.9 0.1-1.4 0-0.1 0.1-0.2 0-0.3-0.9 0-0.9-0.2-0.9-0.3 0-0.2 0.1-0.3 0.1-0.5 0.1-0.2 0-0.3-0.3-0.4-0.1 0-0.2 0-0.3 0-0.1 0-0.1-0.1-0.3-0.1 0.2-0.1 0.3-0.1 0.5-0.2-0.1-0.4-0.2-0.7-0.5-0.9-0.1-0.1-0.2-0.2-0.2-0.4 0-0.3-0.2-0.5-0.3-0.7-0.2-0.3-0.6-0.4-0.9-0.4-0.3-0.1-0.5-0.1-0.8-0.2-0.3-0.1-0.6-0.4-0.9-0.5-0.1-0.1-0.2-0.2-0.4-0.3-0.4-0.2-0.7-0.5-1-0.8-0.2-0.1-0.3-0.3-0.5-0.4-0.2-0.2-0.3-0.4-0.5-0.5-0.2-0.2-0.4-0.4-0.7-0.6-0.3-0.2-0.5-0.5-0.8-0.8-0.2-0.3-0.5-0.5-0.8-0.7-0.1 0-0.2 0-0.3 0-0.1 0-0.2 0.1-0.3 0.1-0.3 0.1-0.5 0.3-0.8 0.4 0.1-0.1 0.1-0.1 0-0.3-0.1-0.1-0.2-0.2-0.3-0.2-0.2 0-0.4 0-0.6 0-0.4 0-0.8 0.1-1.2 0.1-0.3 0-0.7 0.1-1 0.2 0.1 0.2 0.1 0.3 0.2 0.5-0.2 0.1-0.4 0.1-0.6 0.1-0.1 0-0.3 0.1-0.4 0.2-0.1 0-0.1 0.1-0.2 0-0.2-0.1-0.4 0-0.6 0.1h-0.1c0 0 0-0.1 0.1-0.1 0.1-0.1 0.2-0.2 0.3-0.3 0.1-0.1 0.2-0.1 0.4-0.2-0.1-0.1-0.1-0.2-0.1-0.2-0.1-0.1-0.2-0.1-0.3 0-0.1 0.1-0.2 0.2-0.3 0.3-0.1 0.1-0.2 0.1-0.3 0-0.1-0.1-0.1-0.2 0-0.3 0-0.1 0.1-0.2 0.2-0.3 0.1-0.1 0.1-0.2 0.2-0.3-0.2-0.2-0.3-0.4-0.5-0.5-0.3-0.2-0.6-0.5-0.8-0.8-0.2-0.4-0.5-0.7-0.9-0.9-0.1-0.1-0.2-0.2-0.3-0.3-0.1-0.1-0.1-0.1-0.2-0.2-0.3 0.1-0.5 0.3-0.8 0.4-0.1 0-0.1 0.1-0.2 0.2-0.1 0.2-0.3 0.2-0.5 0.2-0.1 0-0.2-0.1-0.1-0.2 0.1-0.2 0.2-0.4 0.5-0.3 0 0 0.1 0 0.1-0.1 0.2-0.2 0.4-0.5 0.7-0.7-0.1-0.3-0.3-0.5-0.4-0.7-0.1-0.1-0.1-0.2-0.1-0.4 0-0.1 0-0.1-0.1-0.2 0 0-0.1 0-0.2 0.1-0.1 0.1-0.3 0.2-0.5 0 0-0.1 0-0.2 0.1-0.3l0.1-0.1c0.3-0.1 0.3-0.4 0.3-0.7v-0.1c-0.1-0.2-0.1-0.3 0.1-0.5 0.3-0.2 0.6-0.6 0.7-0.9 0.1-0.2 0.3-0.3 0.5-0.5 0.2-0.2 0.4-0.4 0.5-0.7h0.1c0.4 0.1 0.5-0.2 0.7-0.5 0-0.1 0-0.2 0.1-0.2 0.2-0.2 0.2-0.4 0.1-0.7 0-0.1-0.1-0.3-0.1-0.4 0-0.1 0-0.1-0.1-0.2-0.3-0.2-0.3-0.4 0-0.6 0.2-0.1 0.2-0.3 0.3-0.4 0.1-0.2 0.1-0.4 0.1-0.7-0.1-0.3-0.1-0.7-0.2-1-0.1-0.4-0.2-0.9-0.3-1.3 0-0.1 0-0.1 0-0.2 0-0.3 0-0.5-0.1-0.8-0.1-0.1-0.1-0.3-0.1-0.4-0.1-0.3-0.2-0.5-0.5-0.6-0.3-0.2-0.7-0.3-1-0.5-0.1-0.1-0.2 0-0.3 0.1-0.1 0.2-0.3 0.4-0.4 0.6-0.1 0.1-0.2 0.3-0.3 0.5-0.2 0.2-0.6 0.4-0.9 0.1-0.1-0.2-0.2-0.3 0-0.5 0.2-0.3 0.4-0.6 0.7-0.8 0.1-0.1 0.2-0.3 0.3-0.4 0.1-0.2 0.1-0.4 0.1-0.6-0.1-0.4-0.2-0.8-0.2-1.3 0-0.5 0-0.9 0.1-1.4 0.1-0.2 0.1-0.5 0.2-0.7 0-0.1 0.1-0.3 0.2-0.4 0.2-0.2 0.4-0.4 0.5-0.7 0.1-0.3 0.3-0.6 0.3-0.9 0-0.1 0.1-0.2 0.1-0.3 0-0.1 0.1-0.3 0.1-0.4-0.1-0.3 0-0.5 0.1-0.7 0.1-0.2 0.2-0.5 0.3-0.7 0.2-0.4 0.2-0.9 0.6-1.3 0.1-0.2 0.2-0.4 0.3-0.6 0.1-0.4 0.3-0.7 0.5-1 0.1-0.1 0.1-0.1 0.1-0.2 0.1-0.3 0.3-0.6 0.5-0.9 0.2-0.3 0.2-0.6 0.3-0.9 0-0.1 0-0.2 0.1-0.3 0.3-0.3 0.2-0.7 0.1-1.1-0.2-0.5-0.3-1-0.2-1.5 0-0.1 0-0.2 0.1-0.2 0.1-0.2 0.1-0.3 0.2-0.5v-0.1c0.2-0.2 0.4-0.5 0.7-0.6 0.4-0.2 0.8-0.3 1.3-0.4 0.4 0 0.8-0.2 1.1-0.6 0-0.1 0.1-0.1 0.2-0.2l0.1-0.1c0.1-0.2 0.2-0.3 0.3-0.4 0.2-0.2 0.4-0.5 0.6-0.7 0.2-0.2 0.4-0.5 0.7-0.8l0.1-0.1c0.2-0.2 0.4-0.4 0.6-0.5 0.2-0.2 0.4-0.4 0.6-0.6 0.2-0.2 0.3-0.4 0.5-0.6 0.2-0.1 0.4-0.3 0.6-0.5 0.2-0.2 0.4-0.4 0.5-0.5 0.2-0.2 0.5-0.4 0.7-0.5 0.2-0.1 0.4-0.2 0.5-0.5 0.1-0.3 0.2-0.5 0.3-0.8 0-0.2 0.1-0.4 0.2-0.6 0.1 0 0.2 0 0.4-0.1-0.1-0.1-0.2-0.1-0.2-0.2 0-0.1 0.1-0.2 0.1-0.2 0-0.1 0.1-0.2 0.1-0.3 0 0 0.1 0 0.1-0.1 0 0 0.1 0 0.1-0.1-0.2 0.1-0.3 0-0.4-0.1 0.1 0.1 0.2 0.1 0.4 0.2 0 0 0.1 0 0.1-0.1 0-0.1 0-0.2 0-0.2 0 0-0.1 0-0.2 0-0.1 0-0.2 0.1-0.3 0.1zM54 70.5c0-0.1-0.1-0.1-0.1-0.2-0.1-0.2 0-0.3 0.1-0.4 0.1-0.1 0.2-0.1 0.4-0.1 0.2 0.1 0.3 0.2 0.3 0.4 0 0.1 0 0.3 0 0.4 0.1 0.4 0.1 0.4 0.5 0.4 0.2 0 0.4 0 0.6 0 0.4-0.1 0.8-0.3 1.2-0.4 0.4-0.1 0.8-0.2 1.2-0.3 0.1 0 0.2 0 0.4 0 0.4 0.1 0.7 0 1-0.2 0.1-0.1 0.3-0.1 0.4-0.2 0.2-0.1 0.4-0.1 0.6-0.2 0.5-0.3 1-0.5 1.4-0.8 0.3-0.2 0.6-0.4 0.9-0.6 0.3-0.2 0.6-0.4 0.9-0.6 0.2-0.1 0.5-0.3 0.7-0.5 0.4-0.3 0.7-0.6 1.1-0.8 0.2-0.1 0.3-0.2 0.4-0.3 0.2-0.1 0.3-0.3 0.5-0.4 0.1-0.1 0.2-0.2 0.4-0.3 0.1-0.1 0.1-0.1 0.1-0.2 0.3-0.2 0.6-0.6 0.8-0.9 0.2-0.2 0.4-0.4 0.6-0.7 0.3-0.3 0.5-0.7 0.8-1.1 0.2-0.2 0.4-0.5 0.5-0.7 0.2-0.4 0.4-0.8 0.7-1.1v-0.1c0.2-0.4 0.4-0.8 0.6-1.2 0.3-0.5 0.5-1.1 0.8-1.6 0.1-0.2 0.2-0.4 0.2-0.6 0.2-0.4 0.3-0.8 0.4-1.2 0-0.1 0-0.1 0.1-0.2 0.3-0.6 0.5-1.2 0.6-1.9 0.1-0.4 0.2-0.8 0.3-1.2 0.2-0.6 0.2-1.1 0.3-1.7 0.1-0.4 0.1-0.9 0.1-1.3 0.1-0.6 0.1-1.3 0-1.9 0-0.5-0.1-1.1-0.1-1.6 0-0.5-0.1-0.9-0.2-1.4-0.1-0.5-0.2-0.9-0.3-1.4-0.2-0.4-0.3-0.8-0.4-1.3-0.1-0.4-0.3-0.7-0.3-1.1 0-0.3-0.1-0.6-0.4-0.7-0.3-0.1-0.5-0.2-0.8-0.4-0.6-0.4-0.9-0.9-0.8-1.5 0-0.3 0.1-0.7 0.2-1 0.1-0.3 0.2-0.6 0-0.8-0.1-0.3-0.3-0.5-0.4-0.7-0.2-0.3-0.3-0.5-0.5-0.7-0.2-0.4-0.4-0.8-0.7-1.1-0.4-0.5-0.7-1-1.2-1.4l-0.1-0.1c-0.3-0.4-0.6-0.8-1-1.1-0.2-0.2-0.4-0.4-0.6-0.5-0.1-0.1-0.2-0.2-0.4-0.3-0.3-0.2-0.6-0.3-0.8-0.5-0.3-0.3-0.7-0.5-1-0.7 0 0-0.1 0-0.1-0.1-0.4-0.2-0.7-0.3-1.1-0.5-0.4-0.2-0.8-0.3-1.2-0.3-0.1 0-0.1 0-0.2 0-0.1-0.1-0.3-0.1-0.4-0.1-0.1 0-0.1 0-0.2 0-0.2-0.1-0.5 0-0.7 0-0.4 0.1-0.8 0.1-1.2-0.1-0.5-0.2-0.9-0.4-1.3-0.6-0.3-0.2-0.5-0.4-0.8-0.6-0.6-0.5-1.2-1.1-1.9-1.6 0.1-0.5-0.1-0.6-0.5-0.6-0.2 0-0.4 0.1-0.6 0.2-0.1 0.1-0.1 0.1-0.2 0.2-0.3 0.2-0.5 0.5-0.8 0.7-0.5 0.3-0.7 0.2-1.1 0-0.1-0.1-0.2-0.2-0.3-0.3-0.2-0.2-0.4-0.5-0.5-0.7-0.2-0.4-0.6-0.4-1-0.4-0.2 0-0.5 0.1-0.7 0.1-0.4 0-0.8 0.2-1 0.5-0.2 0.3-0.4 0.6-0.7 0.9-0.1 0.1-0.3 0.2-0.4 0.4-0.2 0.2-0.4 0.2-0.6 0-0.1-0.1-0.2-0.1-0.3-0.2-0.1 0.1-0.2 0.2-0.2 0.3-0.1 0.2-0.2 0.4-0.3 0.7-0.1 0.3-0.3 0.6-0.5 0.8-0.1 0.1-0.1 0.1-0.2 0.2-0.1 0.2-0.4 0.3-0.6 0.3-0.2 0.2-0.4 0.5-0.5 0.7-0.1 0.2-0.2 0.4-0.3 0.7-0.1 0.1-0.1 0.3-0.2 0.4-0.1 0.2-0.1 0.3-0.1 0.5 0.1 0.3-0.1 0.4-0.4 0.5-0.2 0-0.2 0-0.3 0.2 0 0.3 0.1 0.5 0.2 0.8 0.1 0.1 0.2 0.3 0.2 0.4 0 0.2 0.1 0.3 0.3 0.4 0.1 0.1 0.2 0.2 0.3 0.2 0.1 0 0.1 0.1 0.2 0.1 0.1 0.1 0.2 0 0.2-0.1 0.1-0.3 0.2-0.6 0.2-0.9 0.1-0.4 0.1-0.7 0.2-1.1 0.1-0.2 0.2-0.3 0.3-0.4 0 0 0.1 0 0.2 0v0.1c-0.1 0.5-0.3 1.1-0.4 1.6-0.1 0.2-0.1 0.4-0.2 0.6 0 0.1-0.1 0.2-0.2 0.2-0.2 0.1-0.4 0.2-0.6 0.2-0.1 0-0.2 0-0.3 0-0.2-0.1-0.4-0.3-0.6-0.4-0.1-0.1-0.2-0.2-0.3-0.3-0.1-0.2-0.2-0.4-0.3-0.6-0.1-0.2-0.2-0.3-0.4-0.4-0.1-0.1-0.2-0.1-0.3-0.2-0.2-0.2-0.4-0.3-0.7-0.3-0.1 0-0.3 0-0.4 0-0.1 0-0.3 0.1-0.4 0.2-0.2 0.1-0.3 0.1-0.5 0-0.5-0.2-1-0.1-1.5 0.1-0.2 0.1-0.4 0.2-0.6 0.2-0.5 0-0.9 0-1.4 0-0.5 0-0.9-0.1-1.4-0.2-0.2 0-0.4 0-0.6 0-0.4 0.1-0.5 0.4-0.4 0.8 0.1 0.4 0.2 0.9 0.2 1.3 0 0.3 0 0.6 0 0.9 0 0.2 0 0.3 0 0.5 0 0.3-0.1 0.6-0.1 0.9-0.1 0.6-0.4 1.1-0.8 1.5-0.3 0.3-0.7 0.6-1.1 0.7-0.2 0.1-0.4 0.2-0.7 0.3-0.5 0.2-0.9 0.6-1.2 1.1-0.1 0.2-0.2 0.4-0.3 0.6-0.2 0.3-0.3 0.5-0.5 0.8-0.1 0.2-0.3 0.4-0.4 0.6-0.1 0.2-0.3 0.3-0.3 0.5-0.2 0.4-0.3 0.8-0.5 1.2-0.1 0.2-0.1 0.5-0.2 0.7-0.2 0.4-0.2 0.8-0.2 1.3 0 0.1 0 0.2 0 0.4 0 0.5-0.1 1.1-0.1 1.6 0 0.5 0 1 0.1 1.5 0 0.2 0 0.5 0 0.7 0 0.4 0.1 0.9 0.1 1.3 0 0.4 0 0.9 0.2 1.3v0.1c0.1 0.4 0.1 0.8 0.2 1.2 0 0.1 0 0.2 0.1 0.3 0.2 0.6 0.3 1.1 0.5 1.7 0.1 0.4 0.3 0.8 0.4 1.2 0.1 0.4 0.5 0.8 0.6 1.3v0c0.3 0.6 0.6 1.2 1 1.8 0.1 0.2 0.3 0.4 0.4 0.6 0.2 0.3 0.3 0.6 0.5 0.8 0.1 0.2 0.3 0.4 0.4 0.5 0.1 0.2 0.2 0.4 0.4 0.6 0.2 0.2 0.4 0.5 0.6 0.7 0.3 0.5 0.7 0.9 1.1 1.2 0.2 0.2 0.4 0.3 0.6 0.5 0.1 0.1 0.2 0.1 0.2 0.2 0.1 0.1 0.2 0.2 0.4 0.3 0.8 0.4 1.4 1 2.1 1.6 0.3 0.3 0.6 0.6 1 0.8 0.4 0.3 0.7 0.6 1.2 0.7 0 0 0.1 0 0.1 0.1 0.2 0.2 0.5 0.3 0.7 0.4 0.4 0.2 0.9 0.4 1.3 0.6 0.1 0.1 0.3 0.1 0.4 0.2 0.3 0.1 0.6 0.2 0.9 0.3 0.3 0.1 0.5 0.2 0.8 0.2h0.1c0.2 0.1 0.3 0.1 0.5 0 0.1 0 0.2 0 0.2 0.1 0 0.1 0.1 0.1 0.2 0.1 0.1 0 0.2 0 0.4 0 0.1-0.1 0.1-0.2 0.2-0.4 0.1 0.1 0.2 0.1 0.2 0.1 0.1 0.2 0.3 0.2 0.5 0.2h0.1c0.2 0 0.3 0 0.4-0.1 0-0.1 0.2-0.1 0.3-0.1 0.3 0.1 0.6 0.1 0.9 0.2 0.2 0.1 0.5 0.1 0.6-0.1 0.1-0.1 0.2-0.2 0.4-0.1 0.2 0.1 0.3 0.1 0.5 0 0.1 0 0.2 0 0.2 0 0.3 0.1 0.5 0.1 0.8 0.2 0.4 0.1 0.4 0.1 0.7-0.2 0.1-0.1 0.3-0.1 0.4 0 0.1 0.2 0.1 0.3 0.1 0.5 0.1 0 0.1 0 0.2-0.1 0-0.2 0.1-0.2 0.3-0.3 0.1 0.1 0.1 0.1 0.2 0.1 0.2 0.2 0.3 0.2 0.4-0.1 0-0.1 0-0.2 0.1-0.2 0.1 0 0.2 0.1 0.2 0.1 0.1 0.2 0.3 0.3 0.4 0.5 0.2 0.2 0.5 0.2 0.6 0 0.1-0.1 0.2-0.1 0.3-0.1 0-0.1 0-0.2 0-0.3 0.3 0.2 0.2 0.2 0.1 0.2zM37.4 23.8c0.3 0.1 0.5 0.1 0.6-0.1-0.2 0.1-0.4-0.1-0.6 0.1z" fill="white" fillRule="nonzero" stroke="none" strokeWidth="1" strokeLinecap="butt" strokeLinejoin="miter" stroke-miterlimit="10" stroke-dasharray="" stroke-dashoffset="0" font-family="none" font-weight="none" font-size="none" text-anchor="none" style="mix-blend-mode: normal"></path></g><g transform="matrix(1,0,0,1,64,119.7323389365591)"><svg viewBox="0 0 192 120.5353221268818" height="120.5353221268818" width="192"><g><svg viewBox="0 0 192 120.5353221268818" height="120.5353221268818" width="192"><g transform="matrix(1,0,0,1,0,60.484860990369704)"><svg viewBox="0 0 192 60.050461136512084" height="60.050461136512084" width="192"><g id="SvgjsG2034"><svg viewBox="0 0 192 60.050461136512084" height="60.050461136512084" width="192" id="SvgjsSvg2033"><g><svg viewBox="0 0 192 60.050461136512084" height="60.050461136512084" width="192"><path d="M191.55 12.88C190.648 6.646 188.075 4.914 188.075 4.914 180.177-1.507 170.321-0.123 161.466 0.8 145.832 0.837 130.262 2.208 114.664 2.944 81.926 3.056 48.907 1.211 16.331 5.761 13.271 7.158-3.175 6.036 0.544 13.678 1.519 16.856 5.075 20.384 4.967 23.302 5.455 23.813 6.132 22.641 6.42 23.376 7.431 25.359 9.083 24.424 10.437 25.595 8.551 28.725 9.905 31.33 11.195 34.06 8.921 34.771 6.005 34.434 4.696 36.79 4.561 38.498 3.83 38.174 3.027 38.099 2.44 38.049 1.257 38.236 1.456 38.772 2.133 40.605-0.774 41.665 1.05 43.46-0.205 45.405 1.916 47.088 1.627 49.194 1.591 49.618 1.79 49.98 2.106 50.08 3.505 50.616 1.465 51.663 1.682 52.797 16.033 60.551 31.604 55.191 46.308 58.756 50.126 56.263 47.256 59.641 48.781 59.118 49.972 58.507 50.839 61.038 52.184 59.604 52.392 59.192 52.076 58.22 52.816 58.407 53.204 58.507 53.547 58.482 53.601 57.908 53.682 57.048 52.969 57.584 52.78 57.136 54.829 54.867 54.323 60.265 56.246 60.04 56.156 59.379 55.596 58.432 56.742 58.557 57.88 57.609 57.916 56.824 58.927 58.956 58.963 59.417 59.143 59.741 59.432 59.965 62.591 57.647 65.732 60.788 69.045 59.741 71.076 58.594 73.026 60.364 75.084 59.928 75.806 59.579 76.537 58.956 77.232 60.003 85.744 60.227 94.815 59.292 102.885 60.04 124.449 58.644 147.493 60.614 170.23 58.769 175.592 58.058 181.161 57.048 186.387 56.238 186.387 56.238 190.621 54.019 190.621 44.046S191.523 35.319 191.659 27.378C191.794 19.437 192.426 19.113 191.523 12.88Z" opacity="1" fill="white"></path><g transform="matrix(1,0,0,1,27.072000000000003,19.1)"><svg width="137.856" viewBox="1.5 -35.95 229.63 36.400000000000006" height="21.850461136512084" data-palette-color="#000000"><path d="M19.7 0.25L19.7 0.25Q17.95 0.25 16.65-0.9 15.35-2.05 15.35-4.65L15.35-4.65Q15.35-4.9 15.35-5.15 15.35-5.4 15.4-5.65L15.4-5.65Q13.9-2.65 12.03-1.23 10.15 0.2 8.25 0.2L8.25 0.2Q6.5 0.2 4.95-1.03 3.4-2.25 2.45-4.65 1.5-7.05 1.5-10.45L1.5-10.45Q1.5-13.95 2.48-16.7 3.45-19.45 5.05-21.35 6.65-23.25 8.55-24.23 10.45-25.2 12.25-25.2L12.25-25.2Q14.25-25.2 15.85-23.98 17.45-22.75 18.05-20.1L18.05-20.1Q18.2-20.95 18.28-21.65 18.35-22.35 18.35-22.6L18.35-22.6Q18.4-23.95 19.73-24.6 21.05-25.25 22.65-25.25L22.65-25.25Q24.05-25.25 25.3-24.7 26.55-24.15 27-22.85L27-22.85 27.1-22.55Q26.5-21.2 25.9-19.3 25.3-17.4 24.8-15.33 24.3-13.25 24-11.28 23.7-9.3 23.7-7.8L23.7-7.8Q23.7-6.15 24.05-5.53 24.4-4.9 24.9-4.9L24.9-4.9Q25.75-4.9 26.45-6.1L26.45-6.1 26.85-5.9Q26.85-4.2 25.75-2.8 24.65-1.4 23-0.58 21.35 0.25 19.7 0.25ZM11.55-6.1L11.55-6.1Q12.85-6.1 14.43-8.43 16-10.75 17.15-15.1L17.15-15.1Q17.25-15.55 17.35-15.98 17.45-16.4 17.5-16.8L17.5-16.8Q16.7-18.65 15.83-19.43 14.95-20.2 14.1-20.2L14.1-20.2Q12.85-20.2 11.78-18.88 10.7-17.55 10.03-15.55 9.35-13.55 9.35-11.55L9.35-11.55Q9.35-8.8 9.98-7.45 10.6-6.1 11.55-6.1ZM35.55 0.15L35.55 0.15Q33.7 0.15 32.2-1.33 30.7-2.8 30.7-5.45L30.7-5.45Q30.7-6.75 31.05-8.4 31.4-10.05 31.82-11.75 32.25-13.45 32.6-14.95 32.95-16.45 32.95-17.4L32.95-17.4Q32.95-18.4 32.55-18.98 32.15-19.55 31.5-19.55L31.5-19.55Q30.65-19.55 29.65-18.55L29.65-18.55 29.35-18.75Q29.3-19.55 29.7-20.65 30.1-21.75 30.92-22.78 31.75-23.8 33.05-24.5 34.35-25.2 36.15-25.2L36.15-25.2Q38.8-25.2 40.07-23.68 41.35-22.15 41.35-19.95L41.35-19.95Q41.35-19.15 41.2-18.4L41.2-18.4Q42.25-19.95 43.8-21.53 45.35-23.1 47.22-24.15 49.1-25.2 51.1-25.2L51.1-25.2Q53.45-25.2 54.3-23.7 55.15-22.2 55.15-19.95L55.15-19.95Q55.15-17.85 54.7-15.45 54.25-13.05 53.8-10.83 53.35-8.6 53.35-7.1L53.35-7.1Q53.35-5.1 54.5-5.1L54.5-5.1Q55.1-5.1 55.55-5.48 56-5.85 56.15-6.2L56.15-6.2 56.5-6.05Q56.5-4.2 55.47-2.8 54.45-1.4 52.9-0.63 51.35 0.15 49.75 0.15L49.75 0.15Q47.8 0.15 46.3-1.2 44.8-2.55 44.8-5.6L44.8-5.6Q44.8-7.4 45.27-9.5 45.75-11.6 46.2-13.55 46.65-15.5 46.65-16.75L46.65-16.75Q46.65-17.5 46.37-17.93 46.1-18.35 45.4-18.35L45.4-18.35Q44.25-18.35 42.87-17.3 41.5-16.25 40.52-14.5 39.55-12.75 39.55-10.65L39.55-10.65Q39.55-9.3 39.87-8.05 40.2-6.8 40.2-5.35L40.2-5.35Q40.2-2.65 38.8-1.25 37.4 0.15 35.55 0.15ZM60.45-10.65L60.45-10.65Q60.15-11.3 60.02-11.93 59.9-12.55 59.9-13.1L59.9-13.1Q59.9-15.05 61.25-16.32 62.6-17.6 64.9-17.6L64.9-17.6Q67.1-17.6 69.27-17.43 71.45-17.25 73.3-17.25L73.3-17.25Q74.7-17.25 75.82-17.43 76.95-17.6 77.65-18.1L77.65-18.1Q78.55-16.45 78.55-15L78.55-15Q78.55-13.3 77.3-12.2 76.05-11.1 73.4-11.1L73.4-11.1Q70.65-11.1 68.55-11.18 66.45-11.25 64.8-11.25L64.8-11.25Q63.45-11.25 62.37-11.15 61.3-11.05 60.45-10.65ZM89.24 0.2L89.24 0.2Q86.34 0.2 84.64-1.33 82.94-2.85 82.94-6.05L82.94-6.05Q82.94-7.9 83.42-10 83.89-12.1 84.34-13.75L84.34-13.75Q84.79-15.35 85.07-16.55 85.34-17.75 85.34-18.4L85.34-18.4Q85.34-19.2 84.99-19.55 84.64-19.9 84.14-19.9L84.14-19.9Q82.94-19.9 82.14-18.75L82.14-18.75 81.94-18.95Q81.99-20.65 83.04-22.08 84.09-23.5 85.74-24.35 87.39-25.2 89.09-25.2L89.09-25.2Q90.99-25.2 92.34-24.08 93.69-22.95 93.59-20.55L93.59-20.55Q93.54-19.5 93.22-17.9 92.89-16.3 92.34-14.1L92.34-14.1Q91.99-12.7 91.62-10.93 91.24-9.15 91.24-7.7L91.24-7.7Q91.24-6.6 91.59-5.95 91.94-5.3 92.74-5.3L92.74-5.3Q93.79-5.3 95.07-6.48 96.34-7.65 97.29-10.33 98.24-13 98.39-17.45L98.39-17.45Q98.54-20.85 97.94-22.4L97.94-22.4 97.94-22.65Q98.39-23.35 99.32-24 100.24-24.65 101.39-25.08 102.54-25.5 103.54-25.5L103.54-25.5Q105.14-25.5 106.27-23.95 107.39-22.4 107.24-18.55L107.24-18.55Q107.14-14.85 105.92-11.85 104.69-8.85 102.74-6.6 100.79-4.35 98.47-2.85 96.14-1.35 93.74-0.58 91.34 0.2 89.24 0.2ZM118.94-26.75L118.94-26.75Q116.94-26.75 115.67-27.98 114.39-29.2 114.39-31.05L114.39-31.05Q114.39-33.05 115.89-34.5 117.39-35.95 119.54-35.95L119.54-35.95Q121.54-35.95 122.82-34.7 124.09-33.45 124.09-31.6L124.09-31.6Q124.09-29.6 122.59-28.18 121.09-26.75 118.94-26.75ZM115.44 0.2L115.44 0.2Q113.49 0.2 111.94-1.18 110.39-2.55 110.39-5.6L110.39-5.6Q110.39-7.35 110.87-8.88 111.34-10.4 111.97-11.85 112.59-13.3 113.07-14.68 113.54-16.05 113.54-17.4L113.54-17.4Q113.54-18.6 113.14-19.13 112.74-19.65 112.19-19.65L112.19-19.65Q111.34-19.65 110.54-18.55L110.54-18.55 110.19-18.75Q110.39-20.75 111.47-22.18 112.54-23.6 114.12-24.4 115.69-25.2 117.24-25.2L117.24-25.2Q119.14-25.2 120.54-23.98 121.94-22.75 121.94-20L121.94-20Q121.94-18.35 121.47-16.53 120.99-14.7 120.37-12.9 119.74-11.1 119.27-9.55 118.79-8 118.79-6.9L118.79-6.9Q118.79-5.95 119.17-5.55 119.54-5.15 119.99-5.15L119.99-5.15Q120.44-5.15 120.87-5.43 121.29-5.7 121.49-6.05L121.49-6.05 121.84-5.95Q121.84-4.1 120.87-2.73 119.89-1.35 118.44-0.58 116.99 0.2 115.44 0.2ZM132.94 0.2L132.94 0.2Q131.14 0.2 129.56-1.05 127.99-2.3 127.01-4.7 126.04-7.1 126.04-10.5L126.04-10.5Q126.04-14 127.04-16.75 128.04-19.5 129.66-21.43 131.29-23.35 133.21-24.35 135.14-25.35 136.99-25.35L136.99-25.35Q139.04-25.35 140.64-24.08 142.24-22.8 142.84-20.1L142.84-20.1Q143.29-22.6 143.61-24.88 143.94-27.15 143.94-28.9L143.94-28.9Q143.94-31.2 143.34-32.25L143.34-32.25 143.34-32.55Q144.49-33.85 145.86-34.48 147.24-35.1 148.49-35.1L148.49-35.1Q150.14-35.1 151.29-34.08 152.44-33.05 152.44-31.15L152.44-31.15Q152.44-30.1 152.09-28.05 151.74-26 151.24-23.38 150.74-20.75 150.21-17.98 149.69-15.2 149.34-12.68 148.99-10.15 148.99-8.3L148.99-8.3Q148.99-6.75 149.31-5.83 149.64-4.9 150.39-4.9L150.39-4.9Q150.94-4.9 151.51-5.28 152.09-5.65 152.29-6.15L152.29-6.15 152.64-5.9Q152.64-4.25 151.59-2.88 150.54-1.5 148.94-0.65 147.34 0.2 145.64 0.2L145.64 0.2Q143.79 0.2 142.71-0.83 141.64-1.85 141.19-3.45 140.74-5.05 140.69-6.75L140.69-6.75Q139.14-3.15 137.06-1.48 134.99 0.2 132.94 0.2ZM136.29-6.15L136.29-6.15Q137.59-6.15 139.19-8.5 140.79-10.85 141.99-15.35L141.99-15.35 142.29-16.9Q141.49-18.75 140.56-19.53 139.64-20.3 138.79-20.3L138.79-20.3Q137.54-20.3 136.44-18.93 135.34-17.55 134.66-15.43 133.99-13.3 133.99-10.95L133.99-10.95Q133.99-8.7 134.64-7.43 135.29-6.15 136.29-6.15ZM165.64 0.35L165.64 0.35Q161.99 0.35 159.59-1.13 157.19-2.6 155.99-5.03 154.79-7.45 154.79-10.25L154.79-10.25Q154.79-12.9 155.81-15.58 156.84-18.25 158.81-20.45 160.79-22.65 163.61-24 166.44-25.35 169.99-25.35L169.99-25.35Q174.39-25.35 176.41-23.38 178.44-21.4 178.44-18.6L178.44-18.6Q178.44-16.2 177.16-14.18 175.89-12.15 173.79-10.93 171.69-9.7 169.19-9.7L169.19-9.7Q167.89-9.7 166.54-10.1 165.19-10.5 163.89-11.35L163.89-11.35Q164.14-8.25 165.69-6.85 167.24-5.45 169.39-5.45L169.39-5.45Q170.89-5.45 172.39-6.03 173.89-6.6 175.16-7.53 176.44-8.45 177.14-9.5L177.14-9.5 177.49-9.25Q177.49-6.65 176.41-4.83 175.34-3 173.59-1.85 171.84-0.7 169.76-0.18 167.69 0.35 165.64 0.35ZM166.79-13.15L166.79-13.15Q168.39-13.15 169.39-14.08 170.39-15 170.89-16.25 171.39-17.5 171.39-18.45L171.39-18.45Q171.39-19.6 170.74-20.38 170.09-21.15 168.94-21.15L168.94-21.15Q168.04-21.15 166.96-20.5 165.89-19.85 165.04-18.28 164.19-16.7 163.94-13.9L163.94-13.9Q165.54-13.15 166.79-13.15ZM191.83 0.35L191.83 0.35Q188.08 0.35 185.63-1.15 183.18-2.65 182.01-5.13 180.83-7.6 180.83-10.4L180.83-10.4Q180.83-13.05 181.81-15.7 182.78-18.35 184.66-20.53 186.53-22.7 189.23-24.03 191.93-25.35 195.43-25.35L195.43-25.35Q199.18-25.35 201.61-23.83 204.03-22.3 205.21-19.8 206.38-17.3 206.38-14.45L206.38-14.45Q206.38-11.85 205.43-9.22 204.48-6.6 202.61-4.42 200.73-2.25 198.03-0.95 195.33 0.35 191.83 0.35ZM193.18-3.9L193.18-3.9Q194.53-3.9 195.43-5.3 196.33-6.7 196.78-8.88 197.23-11.05 197.23-13.3L197.23-13.3Q197.23-15.3 196.86-17.07 196.48-18.85 195.73-19.98 194.98-21.1 193.78-21.1L193.78-21.1Q192.48-21.1 191.56-19.7 190.63-18.3 190.18-16.15 189.73-14 189.73-11.7L189.73-11.7Q189.73-9.7 190.11-7.93 190.48-6.15 191.23-5.03 191.98-3.9 193.18-3.9ZM217.78 0.45L217.78 0.45Q214.68 0.45 212.63-0.4 210.58-1.25 209.58-2.58 208.58-3.9 208.58-5.25L208.58-5.25Q208.58-7.15 210.28-8.63 211.98-10.1 214.88-10.1L214.88-10.1Q214.88-7.55 215.53-6.03 216.18-4.5 217.21-3.85 218.23-3.2 219.18-3.2L219.18-3.2Q220.33-3.2 221.11-3.88 221.88-4.55 221.88-5.55L221.88-5.55Q221.88-6.95 220.43-8 218.98-9.05 216.68-10.35L216.68-10.35Q215.53-11.05 214.18-11.98 212.83-12.9 211.88-14.23 210.93-15.55 210.93-17.4L210.93-17.4Q210.93-19.35 212.06-20.85 213.18-22.35 215.03-23.38 216.88-24.4 219.03-24.93 221.18-25.45 223.23-25.45L223.23-25.45Q227.08-25.45 229.03-23.9 230.98-22.35 230.98-20.6L230.98-20.6Q230.98-19.1 229.48-17.9 227.98-16.7 224.88-16.7L224.88-16.7Q224.93-19.25 223.83-20.43 222.73-21.6 221.48-21.6L221.48-21.6Q220.58-21.6 219.98-21.05 219.38-20.5 219.38-19.45L219.38-19.45Q219.38-18.25 220.16-17.38 220.93-16.5 222.11-15.83 223.28-15.15 224.53-14.55L224.53-14.55Q226.23-13.75 227.73-12.85 229.23-11.95 230.18-10.8 231.13-9.65 231.13-8L231.13-8Q231.13-5.75 229.31-3.83 227.48-1.9 224.43-0.73 221.38 0.45 217.78 0.45Z" opacity="1" transform="matrix(1,0,0,1,0,0)" fill="black" class="wordmark-text-0" id="SvgjsPath2032"></path></svg></g></svg></g></svg></g></svg></g><g transform="matrix(1,0,0,1,68.33675423644677,0)"><svg viewBox="0 0 55.32649152710648 55.32649152710648" height="55.32649152710648" width="55.32649152710648"><g><svg xmlns="http://www.w3.org/2000/svg" xmlns:xlink="http://www.w3.org/1999/xlink" version="1.1" x="0" y="0" viewBox="0 0 512 512" enable-background="new 0 0 512 512" xml:space="preserve" height="55.32649152710648" width="55.32649152710648" class="icon-icon-0" data-fill-palette-color="accent" id="SvgjsSvg2031"></svg></g></svg></g><g></g></svg></g></svg></g></svg></g><defs><mask></mask></defs><mask><g id="SvgjsG2030"><svg viewBox="0 0 320 360" height="360" width="320"><g><svg></svg></g><g><svg viewBox="0 0 320 360" height="360" width="320"><g><path transform="translate(-119.39272,-98.31927) scale(5.58313,5.58313)" d="M36.7 23.5c0-0.2 0.1-0.4 0.3-0.4 0.2 0 0.4 0.1 0.4 0.4 0.1 0 0.3 0 0.4-0.1 0.4 0 0.8-0.1 1.1 0 0.3 0.1 0.5 0.1 0.8 0.2 0.3 0.1 0.5 0 0.7-0.1 0.4-0.1 0.7-0.3 1.1-0.4 0.2-0.1 0.3-0.1 0.5-0.1 0.2-0.1 0.4-0.1 0.7-0.2 0.5-0.1 1-0.2 1.4-0.4 0.4-0.2 0.8-0.2 1.2-0.3 0.2 0 0.3-0.1 0.5-0.2 0.1 0 0.1-0.1 0.2-0.2 0.2-0.1 0.3-0.2 0.5-0.1 0.1 0.1 0.3 0.1 0.4 0h0.1c0.6 0 1.2-0.1 1.9 0 0.1 0 0.2 0 0.2 0 0.3-0.2 0.7-0.2 1.1-0.2 0.1 0 0.3 0 0.4 0h0.1c0.4 0 0.8 0 1.1 0.1 0.3 0 0.5 0.1 0.8 0.2 0.3 0 0.5 0 0.8 0.1 0.2 0 0.4 0 0.6 0 0.1 0 0.2 0 0.2 0 0.4 0.1 0.8 0.1 1.2 0.1 0.3 0.1 0.6 0.2 1 0.2 0.1 0 0.2 0 0.3 0 0.1 0 0.2 0.1 0.3 0.1l0.1 0.1c0.4 0 0.7 0.2 1.1 0.2 0.1 0 0.3 0 0.4 0.1 0.3 0.2 0.7 0.3 1.1 0.3 0.2 0 0.3 0.1 0.4 0.2 0.3 0.1 0.5 0.2 0.8 0.3 0.2 0.1 0.4 0 0.6 0.1 0.3 0.1 0.7 0.2 1 0.5 0.2 0.2 0.4 0.2 0.7 0.4 0.1 0 0.2 0.1 0.3 0.2 0.3 0.2 0.6 0.4 0.9 0.5 0.1 0 0.2 0.1 0.3 0.1 0.3 0.2 0.6 0.5 1 0.7 0.2 0.1 0.3 0.2 0.5 0.3h0.1c0.3 0.3 0.7 0.5 1 0.8 0.3 0.3 0.5 0.5 0.9 0.7 0 0 0 0 0 0.1 0.1 0.2 0.2 0.3 0.4 0.4 0.2 0.1 0.3 0.2 0.4 0.3 0.3 0.2 0.6 0.4 0.8 0.6 0.1 0.1 0.2 0.2 0.4 0.4 0.1 0.1 0.2 0.2 0.3 0.2 0.4 0.1 0.6 0.4 0.9 0.7 0.2 0.2 0.5 0.5 0.7 0.7 0.1 0.1 0.2 0.3 0.3 0.5 0.2 0.6 0.5 1.2 0.8 1.7 0 0 0 0.1 0.1 0.2v0.1c0.2 0.2 0.3 0.5 0.5 0.7 0.1 0.1 0.1 0.2 0.2 0.3 0.2 0.3 0.3 0.7 0.5 1 0.3 0.5 0.5 1 0.7 1.5v0.1c0.1 0.2 0.2 0.4 0.3 0.7 0 0.2 0.2 0.4 0.3 0.7 0.1 0.5 0.4 1 0.5 1.6 0 0.1 0.1 0.2 0.1 0.4 0.1 0.3 0.2 0.6 0.3 0.9 0 0.1 0.1 0.2 0.2 0.3 0.2 0.2 0.2 0.4 0.2 0.6-0.1 0.4 0 0.8 0.1 1.2 0 0.1 0 0.2 0 0.4 0.1 0.4 0.2 0.9 0.2 1.3 0 0.1 0 0.3 0 0.4 0 0.3 0.1 0.6 0.3 0.9 0 0.1 0.1 0.1 0.1 0.1 0.1 0.1 0.2 0.3 0.3 0.4 0.1 0.1 0.1 0.1 0.2 0.2 0.2 0.2 0.3 0.4 0.3 0.7 0 0.1-0.1 0.3-0.1 0.4 0 0.1 0 0.3 0.1 0.4 0.1 0.1 0.1 0.2 0.1 0.3 0 0.1-0.1 0.2-0.2 0.2v0c-0.1 0.3-0.5 0.4-0.6 0.7-0.1 0.4-0.2 0.8-0.3 1.2-0.1 0.3-0.1 0.5-0.1 0.8 0 0.3-0.1 0.5-0.1 0.8-0.1 0.4-0.2 0.8-0.3 1.2 0 0.2-0.1 0.4-0.1 0.6 0.1 0.1 0.2 0.2 0.3 0.2 0.2 0.2 0.4 0.4 0.6 0.6 0.1 0.1 0.1 0.2 0 0.2-0.1 0.1-0.2 0.1-0.3 0.1-0.1-0.1-0.3-0.2-0.4-0.2-0.1-0.1-0.3-0.2-0.5-0.1 0 0.2-0.1 0.4-0.1 0.5-0.1 0.2-0.2 0.5-0.2 0.7-0.1 0.4-0.3 0.7-0.4 1.1-0.2 0.5-0.4 0.9-0.6 1.3-0.1 0.2-0.2 0.4-0.3 0.6v0c0 0.3-0.3 0.6-0.4 0.9-0.2 0.4-0.4 0.8-0.6 1.3-0.1 0.2-0.2 0.4-0.3 0.5-0.2 0.5-0.4 0.9-0.7 1.3-0.2 0.3-0.4 0.5-0.6 0.6-0.2 0.2-0.4 0.4-0.6 0.6-0.1 0.1-0.2 0.2-0.3 0.3-0.1 0.1-0.1 0.1-0.2 0.2-0.2 0.3-0.5 0.5-0.7 0.8-0.2 0.2-0.3 0.4-0.6 0.6-0.2 0.2-0.4 0.5-0.7 0.6-0.1 0.1-0.2 0.3-0.3 0.4-0.1 0.1-0.2 0.3-0.3 0.4 0 0.2 0.1 0.4 0.1 0.5 0 0.3-0.3 0.4-0.5 0.2-0.3-0.2-0.3-0.2-0.6 0-0.3 0.2-0.6 0.5-1 0.6-0.1 0-0.1 0.1-0.2 0.1-0.2 0.1-0.3 0.3-0.5 0.4-0.2 0.2-0.5 0.3-0.7 0.5-0.1 0.1-0.2 0.1-0.3 0.2-0.3 0.2-0.6 0.3-0.9 0.6-0.1 0.1-0.2 0.1-0.3 0.2 0 0.1 0 0.1 0 0.2 0 0.2-0.2 0.4-0.5 0.3-0.3-0.1-0.5 0-0.8 0-0.3 0.1-0.6 0.3-0.9 0.4-0.1 0-0.2 0.1-0.3 0.2-0.3 0.2-0.6 0.3-0.9 0.4-0.2 0-0.4 0.2-0.6 0.2-0.1 0-0.2 0.1-0.3 0.1h-0.1c-0.4 0.3-0.8 0.5-1.2 0.8-0.1 0-0.1 0.1-0.2 0.2-0.1 0.2-0.2 0.3-0.4 0.3-0.5 0-0.7 0.4-0.6 0.8 0 0.1 0.1 0.2 0.1 0.3 0.1 0.2 0 0.4-0.1 0.5-0.1 0.1-0.4 0.1-0.5-0.1-0.2-0.2-0.3-0.4-0.4-0.7-0.1-0.2-0.3-0.4-0.5-0.5-0.2-0.1-0.4-0.1-0.6 0-0.1 0-0.1 0.1-0.2 0.1-0.2 0.2-0.5 0.3-0.8 0.2-0.1 0-0.3 0-0.3 0.1-0.1 0.1-0.1 0.3 0 0.4 0.2 0.2 0.1 0.4 0.1 0.7 0 0.4-0.3 0.6-0.7 0.4-0.1-0.1-0.2-0.1-0.3-0.2-0.1 0-0.1-0.1-0.1-0.2-0.1-0.1-0.1-0.3-0.2-0.5-0.2 0.1-0.4 0.1-0.6 0.2-0.1 0-0.2 0.1-0.3 0.1-0.3 0-0.4 0-0.5-0.3-0.1-0.3-0.3-0.3-0.5-0.4-0.4-0.1-0.9-0.1-1.3-0.3h-0.1c-0.4-0.3-0.8-0.3-1.3-0.3-0.3 0-0.6 0.1-0.9 0.1-0.3 0-0.5 0.1-0.7 0.3-0.1 0.1-0.2 0.2-0.3 0.2-0.1-0.1-0.1-0.2-0.2-0.3v-0.1c0-0.1-0.1-0.2-0.2-0.1-0.2 0.1-0.4-0.1-0.6-0.2-0.1-0.1-0.3-0.3-0.3-0.5-0.1-0.1-0.2-0.2-0.3-0.2-0.2 0-0.5-0.1-0.7-0.1-0.1 0-0.2 0-0.2-0.1-0.1-0.1-0.2-0.1-0.4-0.1-0.1 0-0.1-0.1-0.2-0.1 0.2 0.2 0.3 0.4 0.4 0.6 0 0.1 0.1 0.1 0.1 0.2 0.1 0.2 0 0.3-0.3 0.3-0.2 0-0.2 0-0.3 0.1 0 0.2 0 0.3 0 0.5 0 0.1 0 0.2-0.2 0.3 0 0-0.1 0-0.1 0.1-0.1 0.1-0.1 0.2 0 0.3 0.3 0.2 0.5 0.3 0.8 0.4 0.3 0 0.3 0.2 0.4 0.4 0.1 0.2 0 0.3-0.1 0.5-0.2 0.2-0.4 0.4-0.6 0.6-0.3 0.1-0.5 0.4-0.8 0.4-0.2 0-0.4-0.1-0.5-0.3-0.1-0.5-0.1-0.9 0.1-1.4 0-0.1 0.1-0.2 0-0.3-0.9 0-0.9-0.2-0.9-0.3 0-0.2 0.1-0.3 0.1-0.5 0.1-0.2 0-0.3-0.3-0.4-0.1 0-0.2 0-0.3 0-0.1 0-0.1-0.1-0.3-0.1 0.2-0.1 0.3-0.1 0.5-0.2-0.1-0.4-0.2-0.7-0.5-0.9-0.1-0.1-0.2-0.2-0.2-0.4 0-0.3-0.2-0.5-0.3-0.7-0.2-0.3-0.6-0.4-0.9-0.4-0.3-0.1-0.5-0.1-0.8-0.2-0.3-0.1-0.6-0.4-0.9-0.5-0.1-0.1-0.2-0.2-0.4-0.3-0.4-0.2-0.7-0.5-1-0.8-0.2-0.1-0.3-0.3-0.5-0.4-0.2-0.2-0.3-0.4-0.5-0.5-0.2-0.2-0.4-0.4-0.7-0.6-0.3-0.2-0.5-0.5-0.8-0.8-0.2-0.3-0.5-0.5-0.8-0.7-0.1 0-0.2 0-0.3 0-0.1 0-0.2 0.1-0.3 0.1-0.3 0.1-0.5 0.3-0.8 0.4 0.1-0.1 0.1-0.1 0-0.3-0.1-0.1-0.2-0.2-0.3-0.2-0.2 0-0.4 0-0.6 0-0.4 0-0.8 0.1-1.2 0.1-0.3 0-0.7 0.1-1 0.2 0.1 0.2 0.1 0.3 0.2 0.5-0.2 0.1-0.4 0.1-0.6 0.1-0.1 0-0.3 0.1-0.4 0.2-0.1 0-0.1 0.1-0.2 0-0.2-0.1-0.4 0-0.6 0.1h-0.1c0 0 0-0.1 0.1-0.1 0.1-0.1 0.2-0.2 0.3-0.3 0.1-0.1 0.2-0.1 0.4-0.2-0.1-0.1-0.1-0.2-0.1-0.2-0.1-0.1-0.2-0.1-0.3 0-0.1 0.1-0.2 0.2-0.3 0.3-0.1 0.1-0.2 0.1-0.3 0-0.1-0.1-0.1-0.2 0-0.3 0-0.1 0.1-0.2 0.2-0.3 0.1-0.1 0.1-0.2 0.2-0.3-0.2-0.2-0.3-0.4-0.5-0.5-0.3-0.2-0.6-0.5-0.8-0.8-0.2-0.4-0.5-0.7-0.9-0.9-0.1-0.1-0.2-0.2-0.3-0.3-0.1-0.1-0.1-0.1-0.2-0.2-0.3 0.1-0.5 0.3-0.8 0.4-0.1 0-0.1 0.1-0.2 0.2-0.1 0.2-0.3 0.2-0.5 0.2-0.1 0-0.2-0.1-0.1-0.2 0.1-0.2 0.2-0.4 0.5-0.3 0 0 0.1 0 0.1-0.1 0.2-0.2 0.4-0.5 0.7-0.7-0.1-0.3-0.3-0.5-0.4-0.7-0.1-0.1-0.1-0.2-0.1-0.4 0-0.1 0-0.1-0.1-0.2 0 0-0.1 0-0.2 0.1-0.1 0.1-0.3 0.2-0.5 0 0-0.1 0-0.2 0.1-0.3l0.1-0.1c0.3-0.1 0.3-0.4 0.3-0.7v-0.1c-0.1-0.2-0.1-0.3 0.1-0.5 0.3-0.2 0.6-0.6 0.7-0.9 0.1-0.2 0.3-0.3 0.5-0.5 0.2-0.2 0.4-0.4 0.5-0.7h0.1c0.4 0.1 0.5-0.2 0.7-0.5 0-0.1 0-0.2 0.1-0.2 0.2-0.2 0.2-0.4 0.1-0.7 0-0.1-0.1-0.3-0.1-0.4 0-0.1 0-0.1-0.1-0.2-0.3-0.2-0.3-0.4 0-0.6 0.2-0.1 0.2-0.3 0.3-0.4 0.1-0.2 0.1-0.4 0.1-0.7-0.1-0.3-0.1-0.7-0.2-1-0.1-0.4-0.2-0.9-0.3-1.3 0-0.1 0-0.1 0-0.2 0-0.3 0-0.5-0.1-0.8-0.1-0.1-0.1-0.3-0.1-0.4-0.1-0.3-0.2-0.5-0.5-0.6-0.3-0.2-0.7-0.3-1-0.5-0.1-0.1-0.2 0-0.3 0.1-0.1 0.2-0.3 0.4-0.4 0.6-0.1 0.1-0.2 0.3-0.3 0.5-0.2 0.2-0.6 0.4-0.9 0.1-0.1-0.2-0.2-0.3 0-0.5 0.2-0.3 0.4-0.6 0.7-0.8 0.1-0.1 0.2-0.3 0.3-0.4 0.1-0.2 0.1-0.4 0.1-0.6-0.1-0.4-0.2-0.8-0.2-1.3 0-0.5 0-0.9 0.1-1.4 0.1-0.2 0.1-0.5 0.2-0.7 0-0.1 0.1-0.3 0.2-0.4 0.2-0.2 0.4-0.4 0.5-0.7 0.1-0.3 0.3-0.6 0.3-0.9 0-0.1 0.1-0.2 0.1-0.3 0-0.1 0.1-0.3 0.1-0.4-0.1-0.3 0-0.5 0.1-0.7 0.1-0.2 0.2-0.5 0.3-0.7 0.2-0.4 0.2-0.9 0.6-1.3 0.1-0.2 0.2-0.4 0.3-0.6 0.1-0.4 0.3-0.7 0.5-1 0.1-0.1 0.1-0.1 0.1-0.2 0.1-0.3 0.3-0.6 0.5-0.9 0.2-0.3 0.2-0.6 0.3-0.9 0-0.1 0-0.2 0.1-0.3 0.3-0.3 0.2-0.7 0.1-1.1-0.2-0.5-0.3-1-0.2-1.5 0-0.1 0-0.2 0.1-0.2 0.1-0.2 0.1-0.3 0.2-0.5v-0.1c0.2-0.2 0.4-0.5 0.7-0.6 0.4-0.2 0.8-0.3 1.3-0.4 0.4 0 0.8-0.2 1.1-0.6 0-0.1 0.1-0.1 0.2-0.2l0.1-0.1c0.1-0.2 0.2-0.3 0.3-0.4 0.2-0.2 0.4-0.5 0.6-0.7 0.2-0.2 0.4-0.5 0.7-0.8l0.1-0.1c0.2-0.2 0.4-0.4 0.6-0.5 0.2-0.2 0.4-0.4 0.6-0.6 0.2-0.2 0.3-0.4 0.5-0.6 0.2-0.1 0.4-0.3 0.6-0.5 0.2-0.2 0.4-0.4 0.5-0.5 0.2-0.2 0.5-0.4 0.7-0.5 0.2-0.1 0.4-0.2 0.5-0.5 0.1-0.3 0.2-0.5 0.3-0.8 0-0.2 0.1-0.4 0.2-0.6 0.1 0 0.2 0 0.4-0.1-0.1-0.1-0.2-0.1-0.2-0.2 0-0.1 0.1-0.2 0.1-0.2 0-0.1 0.1-0.2 0.1-0.3 0 0 0.1 0 0.1-0.1 0 0 0.1 0 0.1-0.1-0.2 0.1-0.3 0-0.4-0.1 0.1 0.1 0.2 0.1 0.4 0.2 0 0 0.1 0 0.1-0.1 0-0.1 0-0.2 0-0.2 0 0-0.1 0-0.2 0-0.1 0-0.2 0.1-0.3 0.1zM54 70.5c0-0.1-0.1-0.1-0.1-0.2-0.1-0.2 0-0.3 0.1-0.4 0.1-0.1 0.2-0.1 0.4-0.1 0.2 0.1 0.3 0.2 0.3 0.4 0 0.1 0 0.3 0 0.4 0.1 0.4 0.1 0.4 0.5 0.4 0.2 0 0.4 0 0.6 0 0.4-0.1 0.8-0.3 1.2-0.4 0.4-0.1 0.8-0.2 1.2-0.3 0.1 0 0.2 0 0.4 0 0.4 0.1 0.7 0 1-0.2 0.1-0.1 0.3-0.1 0.4-0.2 0.2-0.1 0.4-0.1 0.6-0.2 0.5-0.3 1-0.5 1.4-0.8 0.3-0.2 0.6-0.4 0.9-0.6 0.3-0.2 0.6-0.4 0.9-0.6 0.2-0.1 0.5-0.3 0.7-0.5 0.4-0.3 0.7-0.6 1.1-0.8 0.2-0.1 0.3-0.2 0.4-0.3 0.2-0.1 0.3-0.3 0.5-0.4 0.1-0.1 0.2-0.2 0.4-0.3 0.1-0.1 0.1-0.1 0.1-0.2 0.3-0.2 0.6-0.6 0.8-0.9 0.2-0.2 0.4-0.4 0.6-0.7 0.3-0.3 0.5-0.7 0.8-1.1 0.2-0.2 0.4-0.5 0.5-0.7 0.2-0.4 0.4-0.8 0.7-1.1v-0.1c0.2-0.4 0.4-0.8 0.6-1.2 0.3-0.5 0.5-1.1 0.8-1.6 0.1-0.2 0.2-0.4 0.2-0.6 0.2-0.4 0.3-0.8 0.4-1.2 0-0.1 0-0.1 0.1-0.2 0.3-0.6 0.5-1.2 0.6-1.9 0.1-0.4 0.2-0.8 0.3-1.2 0.2-0.6 0.2-1.1 0.3-1.7 0.1-0.4 0.1-0.9 0.1-1.3 0.1-0.6 0.1-1.3 0-1.9 0-0.5-0.1-1.1-0.1-1.6 0-0.5-0.1-0.9-0.2-1.4-0.1-0.5-0.2-0.9-0.3-1.4-0.2-0.4-0.3-0.8-0.4-1.3-0.1-0.4-0.3-0.7-0.3-1.1 0-0.3-0.1-0.6-0.4-0.7-0.3-0.1-0.5-0.2-0.8-0.4-0.6-0.4-0.9-0.9-0.8-1.5 0-0.3 0.1-0.7 0.2-1 0.1-0.3 0.2-0.6 0-0.8-0.1-0.3-0.3-0.5-0.4-0.7-0.2-0.3-0.3-0.5-0.5-0.7-0.2-0.4-0.4-0.8-0.7-1.1-0.4-0.5-0.7-1-1.2-1.4l-0.1-0.1c-0.3-0.4-0.6-0.8-1-1.1-0.2-0.2-0.4-0.4-0.6-0.5-0.1-0.1-0.2-0.2-0.4-0.3-0.3-0.2-0.6-0.3-0.8-0.5-0.3-0.3-0.7-0.5-1-0.7 0 0-0.1 0-0.1-0.1-0.4-0.2-0.7-0.3-1.1-0.5-0.4-0.2-0.8-0.3-1.2-0.3-0.1 0-0.1 0-0.2 0-0.1-0.1-0.3-0.1-0.4-0.1-0.1 0-0.1 0-0.2 0-0.2-0.1-0.5 0-0.7 0-0.4 0.1-0.8 0.1-1.2-0.1-0.5-0.2-0.9-0.4-1.3-0.6-0.3-0.2-0.5-0.4-0.8-0.6-0.6-0.5-1.2-1.1-1.9-1.6 0.1-0.5-0.1-0.6-0.5-0.6-0.2 0-0.4 0.1-0.6 0.2-0.1 0.1-0.1 0.1-0.2 0.2-0.3 0.2-0.5 0.5-0.8 0.7-0.5 0.3-0.7 0.2-1.1 0-0.1-0.1-0.2-0.2-0.3-0.3-0.2-0.2-0.4-0.5-0.5-0.7-0.2-0.4-0.6-0.4-1-0.4-0.2 0-0.5 0.1-0.7 0.1-0.4 0-0.8 0.2-1 0.5-0.2 0.3-0.4 0.6-0.7 0.9-0.1 0.1-0.3 0.2-0.4 0.4-0.2 0.2-0.4 0.2-0.6 0-0.1-0.1-0.2-0.1-0.3-0.2-0.1 0.1-0.2 0.2-0.2 0.3-0.1 0.2-0.2 0.4-0.3 0.7-0.1 0.3-0.3 0.6-0.5 0.8-0.1 0.1-0.1 0.1-0.2 0.2-0.1 0.2-0.4 0.3-0.6 0.3-0.2 0.2-0.4 0.5-0.5 0.7-0.1 0.2-0.2 0.4-0.3 0.7-0.1 0.1-0.1 0.3-0.2 0.4-0.1 0.2-0.1 0.3-0.1 0.5 0.1 0.3-0.1 0.4-0.4 0.5-0.2 0-0.2 0-0.3 0.2 0 0.3 0.1 0.5 0.2 0.8 0.1 0.1 0.2 0.3 0.2 0.4 0 0.2 0.1 0.3 0.3 0.4 0.1 0.1 0.2 0.2 0.3 0.2 0.1 0 0.1 0.1 0.2 0.1 0.1 0.1 0.2 0 0.2-0.1 0.1-0.3 0.2-0.6 0.2-0.9 0.1-0.4 0.1-0.7 0.2-1.1 0.1-0.2 0.2-0.3 0.3-0.4 0 0 0.1 0 0.2 0v0.1c-0.1 0.5-0.3 1.1-0.4 1.6-0.1 0.2-0.1 0.4-0.2 0.6 0 0.1-0.1 0.2-0.2 0.2-0.2 0.1-0.4 0.2-0.6 0.2-0.1 0-0.2 0-0.3 0-0.2-0.1-0.4-0.3-0.6-0.4-0.1-0.1-0.2-0.2-0.3-0.3-0.1-0.2-0.2-0.4-0.3-0.6-0.1-0.2-0.2-0.3-0.4-0.4-0.1-0.1-0.2-0.1-0.3-0.2-0.2-0.2-0.4-0.3-0.7-0.3-0.1 0-0.3 0-0.4 0-0.1 0-0.3 0.1-0.4 0.2-0.2 0.1-0.3 0.1-0.5 0-0.5-0.2-1-0.1-1.5 0.1-0.2 0.1-0.4 0.2-0.6 0.2-0.5 0-0.9 0-1.4 0-0.5 0-0.9-0.1-1.4-0.2-0.2 0-0.4 0-0.6 0-0.4 0.1-0.5 0.4-0.4 0.8 0.1 0.4 0.2 0.9 0.2 1.3 0 0.3 0 0.6 0 0.9 0 0.2 0 0.3 0 0.5 0 0.3-0.1 0.6-0.1 0.9-0.1 0.6-0.4 1.1-0.8 1.5-0.3 0.3-0.7 0.6-1.1 0.7-0.2 0.1-0.4 0.2-0.7 0.3-0.5 0.2-0.9 0.6-1.2 1.1-0.1 0.2-0.2 0.4-0.3 0.6-0.2 0.3-0.3 0.5-0.5 0.8-0.1 0.2-0.3 0.4-0.4 0.6-0.1 0.2-0.3 0.3-0.3 0.5-0.2 0.4-0.3 0.8-0.5 1.2-0.1 0.2-0.1 0.5-0.2 0.7-0.2 0.4-0.2 0.8-0.2 1.3 0 0.1 0 0.2 0 0.4 0 0.5-0.1 1.1-0.1 1.6 0 0.5 0 1 0.1 1.5 0 0.2 0 0.5 0 0.7 0 0.4 0.1 0.9 0.1 1.3 0 0.4 0 0.9 0.2 1.3v0.1c0.1 0.4 0.1 0.8 0.2 1.2 0 0.1 0 0.2 0.1 0.3 0.2 0.6 0.3 1.1 0.5 1.7 0.1 0.4 0.3 0.8 0.4 1.2 0.1 0.4 0.5 0.8 0.6 1.3v0c0.3 0.6 0.6 1.2 1 1.8 0.1 0.2 0.3 0.4 0.4 0.6 0.2 0.3 0.3 0.6 0.5 0.8 0.1 0.2 0.3 0.4 0.4 0.5 0.1 0.2 0.2 0.4 0.4 0.6 0.2 0.2 0.4 0.5 0.6 0.7 0.3 0.5 0.7 0.9 1.1 1.2 0.2 0.2 0.4 0.3 0.6 0.5 0.1 0.1 0.2 0.1 0.2 0.2 0.1 0.1 0.2 0.2 0.4 0.3 0.8 0.4 1.4 1 2.1 1.6 0.3 0.3 0.6 0.6 1 0.8 0.4 0.3 0.7 0.6 1.2 0.7 0 0 0.1 0 0.1 0.1 0.2 0.2 0.5 0.3 0.7 0.4 0.4 0.2 0.9 0.4 1.3 0.6 0.1 0.1 0.3 0.1 0.4 0.2 0.3 0.1 0.6 0.2 0.9 0.3 0.3 0.1 0.5 0.2 0.8 0.2h0.1c0.2 0.1 0.3 0.1 0.5 0 0.1 0 0.2 0 0.2 0.1 0 0.1 0.1 0.1 0.2 0.1 0.1 0 0.2 0 0.4 0 0.1-0.1 0.1-0.2 0.2-0.4 0.1 0.1 0.2 0.1 0.2 0.1 0.1 0.2 0.3 0.2 0.5 0.2h0.1c0.2 0 0.3 0 0.4-0.1 0-0.1 0.2-0.1 0.3-0.1 0.3 0.1 0.6 0.1 0.9 0.2 0.2 0.1 0.5 0.1 0.6-0.1 0.1-0.1 0.2-0.2 0.4-0.1 0.2 0.1 0.3 0.1 0.5 0 0.1 0 0.2 0 0.2 0 0.3 0.1 0.5 0.1 0.8 0.2 0.4 0.1 0.4 0.1 0.7-0.2 0.1-0.1 0.3-0.1 0.4 0 0.1 0.2 0.1 0.3 0.1 0.5 0.1 0 0.1 0 0.2-0.1 0-0.2 0.1-0.2 0.3-0.3 0.1 0.1 0.1 0.1 0.2 0.1 0.2 0.2 0.3 0.2 0.4-0.1 0-0.1 0-0.2 0.1-0.2 0.1 0 0.2 0.1 0.2 0.1 0.1 0.2 0.3 0.3 0.4 0.5 0.2 0.2 0.5 0.2 0.6 0 0.1-0.1 0.2-0.1 0.3-0.1 0-0.1 0-0.2 0-0.3 0.3 0.2 0.2 0.2 0.1 0.2zM37.4 23.8c0.3 0.1 0.5 0.1 0.6-0.1-0.2 0.1-0.4-0.1-0.6 0.1z" fill="black" fillRule="nonzero" stroke="none" strokeWidth="1" strokeLinecap="butt" strokeLinejoin="miter" stroke-miterlimit="10" stroke-dasharray="" stroke-dashoffset="0" font-family="none" font-weight="none" font-size="none" text-anchor="none" style="mix-blend-mode: normal"></path></g><g transform="matrix(1,0,0,1,64,119.7323389365591)"><svg viewBox="0 0 192 120.5353221268818" height="120.5353221268818" width="192"><g><svg viewBox="0 0 192 120.5353221268818" height="120.5353221268818" width="192"><g transform="matrix(1,0,0,1,0,60.484860990369704)"><svg viewBox="0 0 192 60.050461136512084" height="60.050461136512084" width="192"><g id="SvgjsG2029"><svg viewBox="0 0 192 60.050461136512084" height="60.050461136512084" width="192" id="SvgjsSvg2028"><g><svg viewBox="0 0 192 60.050461136512084" height="60.050461136512084" width="192"><path d="M191.55 12.88C190.648 6.646 188.075 4.914 188.075 4.914 180.177-1.507 170.321-0.123 161.466 0.8 145.832 0.837 130.262 2.208 114.664 2.944 81.926 3.056 48.907 1.211 16.331 5.761 13.271 7.158-3.175 6.036 0.544 13.678 1.519 16.856 5.075 20.384 4.967 23.302 5.455 23.813 6.132 22.641 6.42 23.376 7.431 25.359 9.083 24.424 10.437 25.595 8.551 28.725 9.905 31.33 11.195 34.06 8.921 34.771 6.005 34.434 4.696 36.79 4.561 38.498 3.83 38.174 3.027 38.099 2.44 38.049 1.257 38.236 1.456 38.772 2.133 40.605-0.774 41.665 1.05 43.46-0.205 45.405 1.916 47.088 1.627 49.194 1.591 49.618 1.79 49.98 2.106 50.08 3.505 50.616 1.465 51.663 1.682 52.797 16.033 60.551 31.604 55.191 46.308 58.756 50.126 56.263 47.256 59.641 48.781 59.118 49.972 58.507 50.839 61.038 52.184 59.604 52.392 59.192 52.076 58.22 52.816 58.407 53.204 58.507 53.547 58.482 53.601 57.908 53.682 57.048 52.969 57.584 52.78 57.136 54.829 54.867 54.323 60.265 56.246 60.04 56.156 59.379 55.596 58.432 56.742 58.557 57.88 57.609 57.916 56.824 58.927 58.956 58.963 59.417 59.143 59.741 59.432 59.965 62.591 57.647 65.732 60.788 69.045 59.741 71.076 58.594 73.026 60.364 75.084 59.928 75.806 59.579 76.537 58.956 77.232 60.003 85.744 60.227 94.815 59.292 102.885 60.04 124.449 58.644 147.493 60.614 170.23 58.769 175.592 58.058 181.161 57.048 186.387 56.238 186.387 56.238 190.621 54.019 190.621 44.046S191.523 35.319 191.659 27.378C191.794 19.437 192.426 19.113 191.523 12.88Z" opacity="1" fill="black"></path><g transform="matrix(1,0,0,1,27.072000000000003,19.1)"><svg width="137.856" viewBox="1.5 -35.95 229.63 36.400000000000006" height="21.850461136512084" data-palette-color="#000000"><path d="M19.7 0.25L19.7 0.25Q17.95 0.25 16.65-0.9 15.35-2.05 15.35-4.65L15.35-4.65Q15.35-4.9 15.35-5.15 15.35-5.4 15.4-5.65L15.4-5.65Q13.9-2.65 12.03-1.23 10.15 0.2 8.25 0.2L8.25 0.2Q6.5 0.2 4.95-1.03 3.4-2.25 2.45-4.65 1.5-7.05 1.5-10.45L1.5-10.45Q1.5-13.95 2.48-16.7 3.45-19.45 5.05-21.35 6.65-23.25 8.55-24.23 10.45-25.2 12.25-25.2L12.25-25.2Q14.25-25.2 15.85-23.98 17.45-22.75 18.05-20.1L18.05-20.1Q18.2-20.95 18.28-21.65 18.35-22.35 18.35-22.6L18.35-22.6Q18.4-23.95 19.73-24.6 21.05-25.25 22.65-25.25L22.65-25.25Q24.05-25.25 25.3-24.7 26.55-24.15 27-22.85L27-22.85 27.1-22.55Q26.5-21.2 25.9-19.3 25.3-17.4 24.8-15.33 24.3-13.25 24-11.28 23.7-9.3 23.7-7.8L23.7-7.8Q23.7-6.15 24.05-5.53 24.4-4.9 24.9-4.9L24.9-4.9Q25.75-4.9 26.45-6.1L26.45-6.1 26.85-5.9Q26.85-4.2 25.75-2.8 24.65-1.4 23-0.58 21.35 0.25 19.7 0.25ZM11.55-6.1L11.55-6.1Q12.85-6.1 14.43-8.43 16-10.75 17.15-15.1L17.15-15.1Q17.25-15.55 17.35-15.98 17.45-16.4 17.5-16.8L17.5-16.8Q16.7-18.65 15.83-19.43 14.95-20.2 14.1-20.2L14.1-20.2Q12.85-20.2 11.78-18.88 10.7-17.55 10.03-15.55 9.35-13.55 9.35-11.55L9.35-11.55Q9.35-8.8 9.98-7.45 10.6-6.1 11.55-6.1ZM35.55 0.15L35.55 0.15Q33.7 0.15 32.2-1.33 30.7-2.8 30.7-5.45L30.7-5.45Q30.7-6.75 31.05-8.4 31.4-10.05 31.82-11.75 32.25-13.45 32.6-14.95 32.95-16.45 32.95-17.4L32.95-17.4Q32.95-18.4 32.55-18.98 32.15-19.55 31.5-19.55L31.5-19.55Q30.65-19.55 29.65-18.55L29.65-18.55 29.35-18.75Q29.3-19.55 29.7-20.65 30.1-21.75 30.92-22.78 31.75-23.8 33.05-24.5 34.35-25.2 36.15-25.2L36.15-25.2Q38.8-25.2 40.07-23.68 41.35-22.15 41.35-19.95L41.35-19.95Q41.35-19.15 41.2-18.4L41.2-18.4Q42.25-19.95 43.8-21.53 45.35-23.1 47.22-24.15 49.1-25.2 51.1-25.2L51.1-25.2Q53.45-25.2 54.3-23.7 55.15-22.2 55.15-19.95L55.15-19.95Q55.15-17.85 54.7-15.45 54.25-13.05 53.8-10.83 53.35-8.6 53.35-7.1L53.35-7.1Q53.35-5.1 54.5-5.1L54.5-5.1Q55.1-5.1 55.55-5.48 56-5.85 56.15-6.2L56.15-6.2 56.5-6.05Q56.5-4.2 55.47-2.8 54.45-1.4 52.9-0.63 51.35 0.15 49.75 0.15L49.75 0.15Q47.8 0.15 46.3-1.2 44.8-2.55 44.8-5.6L44.8-5.6Q44.8-7.4 45.27-9.5 45.75-11.6 46.2-13.55 46.65-15.5 46.65-16.75L46.65-16.75Q46.65-17.5 46.37-17.93 46.1-18.35 45.4-18.35L45.4-18.35Q44.25-18.35 42.87-17.3 41.5-16.25 40.52-14.5 39.55-12.75 39.55-10.65L39.55-10.65Q39.55-9.3 39.87-8.05 40.2-6.8 40.2-5.35L40.2-5.35Q40.2-2.65 38.8-1.25 37.4 0.15 35.55 0.15ZM60.45-10.65L60.45-10.65Q60.15-11.3 60.02-11.93 59.9-12.55 59.9-13.1L59.9-13.1Q59.9-15.05 61.25-16.32 62.6-17.6 64.9-17.6L64.9-17.6Q67.1-17.6 69.27-17.43 71.45-17.25 73.3-17.25L73.3-17.25Q74.7-17.25 75.82-17.43 76.95-17.6 77.65-18.1L77.65-18.1Q78.55-16.45 78.55-15L78.55-15Q78.55-13.3 77.3-12.2 76.05-11.1 73.4-11.1L73.4-11.1Q70.65-11.1 68.55-11.18 66.45-11.25 64.8-11.25L64.8-11.25Q63.45-11.25 62.37-11.15 61.3-11.05 60.45-10.65ZM89.24 0.2L89.24 0.2Q86.34 0.2 84.64-1.33 82.94-2.85 82.94-6.05L82.94-6.05Q82.94-7.9 83.42-10 83.89-12.1 84.34-13.75L84.34-13.75Q84.79-15.35 85.07-16.55 85.34-17.75 85.34-18.4L85.34-18.4Q85.34-19.2 84.99-19.55 84.64-19.9 84.14-19.9L84.14-19.9Q82.94-19.9 82.14-18.75L82.14-18.75 81.94-18.95Q81.99-20.65 83.04-22.08 84.09-23.5 85.74-24.35 87.39-25.2 89.09-25.2L89.09-25.2Q90.99-25.2 92.34-24.08 93.69-22.95 93.59-20.55L93.59-20.55Q93.54-19.5 93.22-17.9 92.89-16.3 92.34-14.1L92.34-14.1Q91.99-12.7 91.62-10.93 91.24-9.15 91.24-7.7L91.24-7.7Q91.24-6.6 91.59-5.95 91.94-5.3 92.74-5.3L92.74-5.3Q93.79-5.3 95.07-6.48 96.34-7.65 97.29-10.33 98.24-13 98.39-17.45L98.39-17.45Q98.54-20.85 97.94-22.4L97.94-22.4 97.94-22.65Q98.39-23.35 99.32-24 100.24-24.65 101.39-25.08 102.54-25.5 103.54-25.5L103.54-25.5Q105.14-25.5 106.27-23.95 107.39-22.4 107.24-18.55L107.24-18.55Q107.14-14.85 105.92-11.85 104.69-8.85 102.74-6.6 100.79-4.35 98.47-2.85 96.14-1.35 93.74-0.58 91.34 0.2 89.24 0.2ZM118.94-26.75L118.94-26.75Q116.94-26.75 115.67-27.98 114.39-29.2 114.39-31.05L114.39-31.05Q114.39-33.05 115.89-34.5 117.39-35.95 119.54-35.95L119.54-35.95Q121.54-35.95 122.82-34.7 124.09-33.45 124.09-31.6L124.09-31.6Q124.09-29.6 122.59-28.18 121.09-26.75 118.94-26.75ZM115.44 0.2L115.44 0.2Q113.49 0.2 111.94-1.18 110.39-2.55 110.39-5.6L110.39-5.6Q110.39-7.35 110.87-8.88 111.34-10.4 111.97-11.85 112.59-13.3 113.07-14.68 113.54-16.05 113.54-17.4L113.54-17.4Q113.54-18.6 113.14-19.13 112.74-19.65 112.19-19.65L112.19-19.65Q111.34-19.65 110.54-18.55L110.54-18.55 110.19-18.75Q110.39-20.75 111.47-22.18 112.54-23.6 114.12-24.4 115.69-25.2 117.24-25.2L117.24-25.2Q119.14-25.2 120.54-23.98 121.94-22.75 121.94-20L121.94-20Q121.94-18.35 121.47-16.53 120.99-14.7 120.37-12.9 119.74-11.1 119.27-9.55 118.79-8 118.79-6.9L118.79-6.9Q118.79-5.95 119.17-5.55 119.54-5.15 119.99-5.15L119.99-5.15Q120.44-5.15 120.87-5.43 121.29-5.7 121.49-6.05L121.49-6.05 121.84-5.95Q121.84-4.1 120.87-2.73 119.89-1.35 118.44-0.58 116.99 0.2 115.44 0.2ZM132.94 0.2L132.94 0.2Q131.14 0.2 129.56-1.05 127.99-2.3 127.01-4.7 126.04-7.1 126.04-10.5L126.04-10.5Q126.04-14 127.04-16.75 128.04-19.5 129.66-21.43 131.29-23.35 133.21-24.35 135.14-25.35 136.99-25.35L136.99-25.35Q139.04-25.35 140.64-24.08 142.24-22.8 142.84-20.1L142.84-20.1Q143.29-22.6 143.61-24.88 143.94-27.15 143.94-28.9L143.94-28.9Q143.94-31.2 143.34-32.25L143.34-32.25 143.34-32.55Q144.49-33.85 145.86-34.48 147.24-35.1 148.49-35.1L148.49-35.1Q150.14-35.1 151.29-34.08 152.44-33.05 152.44-31.15L152.44-31.15Q152.44-30.1 152.09-28.05 151.74-26 151.24-23.38 150.74-20.75 150.21-17.98 149.69-15.2 149.34-12.68 148.99-10.15 148.99-8.3L148.99-8.3Q148.99-6.75 149.31-5.83 149.64-4.9 150.39-4.9L150.39-4.9Q150.94-4.9 151.51-5.28 152.09-5.65 152.29-6.15L152.29-6.15 152.64-5.9Q152.64-4.25 151.59-2.88 150.54-1.5 148.94-0.65 147.34 0.2 145.64 0.2L145.64 0.2Q143.79 0.2 142.71-0.83 141.64-1.85 141.19-3.45 140.74-5.05 140.69-6.75L140.69-6.75Q139.14-3.15 137.06-1.48 134.99 0.2 132.94 0.2ZM136.29-6.15L136.29-6.15Q137.59-6.15 139.19-8.5 140.79-10.85 141.99-15.35L141.99-15.35 142.29-16.9Q141.49-18.75 140.56-19.53 139.64-20.3 138.79-20.3L138.79-20.3Q137.54-20.3 136.44-18.93 135.34-17.55 134.66-15.43 133.99-13.3 133.99-10.95L133.99-10.95Q133.99-8.7 134.64-7.43 135.29-6.15 136.29-6.15ZM165.64 0.35L165.64 0.35Q161.99 0.35 159.59-1.13 157.19-2.6 155.99-5.03 154.79-7.45 154.79-10.25L154.79-10.25Q154.79-12.9 155.81-15.58 156.84-18.25 158.81-20.45 160.79-22.65 163.61-24 166.44-25.35 169.99-25.35L169.99-25.35Q174.39-25.35 176.41-23.38 178.44-21.4 178.44-18.6L178.44-18.6Q178.44-16.2 177.16-14.18 175.89-12.15 173.79-10.93 171.69-9.7 169.19-9.7L169.19-9.7Q167.89-9.7 166.54-10.1 165.19-10.5 163.89-11.35L163.89-11.35Q164.14-8.25 165.69-6.85 167.24-5.45 169.39-5.45L169.39-5.45Q170.89-5.45 172.39-6.03 173.89-6.6 175.16-7.53 176.44-8.45 177.14-9.5L177.14-9.5 177.49-9.25Q177.49-6.65 176.41-4.83 175.34-3 173.59-1.85 171.84-0.7 169.76-0.18 167.69 0.35 165.64 0.35ZM166.79-13.15L166.79-13.15Q168.39-13.15 169.39-14.08 170.39-15 170.89-16.25 171.39-17.5 171.39-18.45L171.39-18.45Q171.39-19.6 170.74-20.38 170.09-21.15 168.94-21.15L168.94-21.15Q168.04-21.15 166.96-20.5 165.89-19.85 165.04-18.28 164.19-16.7 163.94-13.9L163.94-13.9Q165.54-13.15 166.79-13.15ZM191.83 0.35L191.83 0.35Q188.08 0.35 185.63-1.15 183.18-2.65 182.01-5.13 180.83-7.6 180.83-10.4L180.83-10.4Q180.83-13.05 181.81-15.7 182.78-18.35 184.66-20.53 186.53-22.7 189.23-24.03 191.93-25.35 195.43-25.35L195.43-25.35Q199.18-25.35 201.61-23.83 204.03-22.3 205.21-19.8 206.38-17.3 206.38-14.45L206.38-14.45Q206.38-11.85 205.43-9.22 204.48-6.6 202.61-4.42 200.73-2.25 198.03-0.95 195.33 0.35 191.83 0.35ZM193.18-3.9L193.18-3.9Q194.53-3.9 195.43-5.3 196.33-6.7 196.78-8.88 197.23-11.05 197.23-13.3L197.23-13.3Q197.23-15.3 196.86-17.07 196.48-18.85 195.73-19.98 194.98-21.1 193.78-21.1L193.78-21.1Q192.48-21.1 191.56-19.7 190.63-18.3 190.18-16.15 189.73-14 189.73-11.7L189.73-11.7Q189.73-9.7 190.11-7.93 190.48-6.15 191.23-5.03 191.98-3.9 193.18-3.9ZM217.78 0.45L217.78 0.45Q214.68 0.45 212.63-0.4 210.58-1.25 209.58-2.58 208.58-3.9 208.58-5.25L208.58-5.25Q208.58-7.15 210.28-8.63 211.98-10.1 214.88-10.1L214.88-10.1Q214.88-7.55 215.53-6.03 216.18-4.5 217.21-3.85 218.23-3.2 219.18-3.2L219.18-3.2Q220.33-3.2 221.11-3.88 221.88-4.55 221.88-5.55L221.88-5.55Q221.88-6.95 220.43-8 218.98-9.05 216.68-10.35L216.68-10.35Q215.53-11.05 214.18-11.98 212.83-12.9 211.88-14.23 210.93-15.55 210.93-17.4L210.93-17.4Q210.93-19.35 212.06-20.85 213.18-22.35 215.03-23.38 216.88-24.4 219.03-24.93 221.18-25.45 223.23-25.45L223.23-25.45Q227.08-25.45 229.03-23.9 230.98-22.35 230.98-20.6L230.98-20.6Q230.98-19.1 229.48-17.9 227.98-16.7 224.88-16.7L224.88-16.7Q224.93-19.25 223.83-20.43 222.73-21.6 221.48-21.6L221.48-21.6Q220.58-21.6 219.98-21.05 219.38-20.5 219.38-19.45L219.38-19.45Q219.38-18.25 220.16-17.38 220.93-16.5 222.11-15.83 223.28-15.15 224.53-14.55L224.53-14.55Q226.23-13.75 227.73-12.85 229.23-11.95 230.18-10.8 231.13-9.65 231.13-8L231.13-8Q231.13-5.75 229.31-3.83 227.48-1.9 224.43-0.73 221.38 0.45 217.78 0.45Z" opacity="1" transform="matrix(1,0,0,1,0,0)" fill="black" class="wordmark-text-0" id="SvgjsPath2027"></path></svg></g></svg></g></svg></g></svg></g><g transform="matrix(1,0,0,1,68.33675423644677,0)"><svg viewBox="0 0 55.32649152710648 55.32649152710648" height="55.32649152710648" width="55.32649152710648"><g><svg xmlns="http://www.w3.org/2000/svg" xmlns:xlink="http://www.w3.org/1999/xlink" version="1.1" x="0" y="0" viewBox="0 0 512 512" enable-background="new 0 0 512 512" xml:space="preserve" height="55.32649152710648" width="55.32649152710648" class="icon-icon-0" data-fill-palette-color="accent" id="SvgjsSvg2026"><path d="M480 0H32C14.313 0 0 14.328 0 32V480C0 497.688 14.313 512 32 512H480C497.688 512 512 497.687 512 480V32C512 14.328 497.688 0 480 0M432 448H160V464C160 472.844 152.844 480 144 480S128 472.844 128 464V448H80C71.156 448 64 440.844 64 432S71.156 416 80 416H128V400C128 391.156 135.156 384 144 384S160 391.156 160 400V416H432C440.844 416 448 423.156 448 432S440.844 448 432 448M480 352H32V32H480zM356.219 176.125C371.5 184.859 371.5 199.141 356.219 207.875L187.781 304.125C172.5 312.844 160 305.594 160 288V96C160 78.406 172.5 71.141 187.781 79.875z" fill="black"></path></svg></g></svg></g><g></g></svg></g></svg></g></svg></g><defs><mask></mask></defs></svg><rect width="320" height="360" fill="black" stroke="none" visibility="hidden"></rect></g></mask></svg><rect width="320" height="360" fill="black" stroke="none" visibility="hidden"></rect></g></mask><linearGradient x1="0" x2="1" y1="0.548" y2="0.55" id="1093f2b2-327e-4ddb-a861-5659bb71603e"><stop stop-color="#ff6cab" offset="0"></stop><stop stop-color="#7366ff" offset="1"></stop></linearGradient></svg><rect width="320" height="360" fill="none" stroke="none" visibility="hidden"></rect></g></svg></g></svg>